<svg version="1.1" xmlns="http://www.w3.org/2000/svg" xmlns:xlink="http://www.w3.org/1999/xlink" width="233.51614" height="140.2929" viewBox="0,0,233.51614,140.2929"><defs><linearGradient x1="123.24424" y1="180.00051" x2="356.75781" y2="180.00051" gradientUnits="userSpaceOnUse" id="color-1"><stop offset="0.012" stop-color="#a7a9ac"/><stop offset="1" stop-color="#414042"/></linearGradient><linearGradient x1="131.69118" y1="180.13275" x2="348.30866" y2="180.13275" gradientUnits="userSpaceOnUse" id="color-2"><stop offset="0" stop-color="#d1d2d3"/><stop offset="1" stop-color="#a4a5a8"/></linearGradient></defs><g transform="translate(-123.24193,-109.85355)"><g data-paper-data="{&quot;isPaintingLayer&quot;:true}" fill-rule="nonzero" stroke="none" stroke-width="1" stroke-linecap="butt" stroke-linejoin="miter" stroke-miterlimit="10" stroke-dasharray="" stroke-dashoffset="0" style="mix-blend-mode: normal"><path d="M356.75807,228.06531c0,12.19403 -9.88968,22.08114 -22.08115,22.08114h-189.35641c-12.19403,0 -22.07858,-9.88968 -22.07858,-22.08114v-96.13318c0,-12.19403 9.88455,-22.07858 22.07858,-22.07858h189.35385c12.19916,0 22.08115,9.88455 22.08115,22.07858v96.13318z" fill="url(#color-1)"/><path d="M348.30635,131.92808v96.40781c0,7.3653 -5.98849,13.35637 -13.35895,13.35637h-189.89985c-7.36273,0 -13.35637,-5.99107 -13.35637,-13.35637v-96.41038c0,-7.3653 5.99364,-13.35637 13.35637,-13.35637h189.89985c7.37045,0 13.35895,5.99364 13.35895,13.35895z" fill="url(#color-2)"/><text transform="translate(139.04854,150.22332) scale(0.39416,0.39416)" font-size="40" xml:space="preserve" fill="#000000" fill-rule="nonzero" stroke="none" stroke-width="1" stroke-linecap="butt" stroke-linejoin="miter" stroke-miterlimit="10" stroke-dasharray="" stroke-dashoffset="0" font-family="Sans Serif" font-weight="normal" text-anchor="start" style="mix-blend-mode: normal"><tspan x="0" dy="0">操作方法</tspan><tspan x="0" dy="46.15px">矢印キーで左右に移動</tspan><tspan x="0" dy="46.15px">スペースキーで爆弾投下</tspan><tspan x="0" dy="46.15px">ポーションに触れると</tspan><tspan x="0" dy="46.15px">　　　　　　　何かが起きる</tspan></text></g></g></svg>