<svg version="1.1" xmlns="http://www.w3.org/2000/svg" xmlns:xlink="http://www.w3.org/1999/xlink" width="93.65783" height="73.90329" viewBox="0,0,93.65783,73.90329"><g transform="translate(-193.17108,-143.04835)"><g data-paper-data="{&quot;isPaintingLayer&quot;:true}" fill-rule="nonzero" stroke="none" stroke-width="1" stroke-linecap="butt" stroke-linejoin="miter" stroke-miterlimit="10" stroke-dasharray="" stroke-dashoffset="0" style="mix-blend-mode: normal"><path d="M205.33759,211.87245c-1.03761,-0.66308 -2.09534,2.60365 -2.69287,2.15596c-0.59752,-0.44955 0.48632,-1.75449 1.24595,-2.53808c1.27275,-1.31431 3.49671,0.02248 2.4698,2.27585c-0.65714,1.44231 -0.68527,1.65209 -1.12872,1.496c-0.70269,-0.25226 1.1428,-2.72914 0.10583,-3.38973z" fill="#272525"/><path d="M201.84091,209.16702c-1.08853,-0.81793 -2.43831,2.32643 -3.05325,1.77822c-0.61561,-0.54695 0.64173,-1.70765 1.5159,-2.38886c1.46299,-1.14199 3.7767,0.55944 2.51668,2.69169c-0.80652,1.36613 -0.8514,1.57406 -1.31896,1.34615c-0.74288,-0.36089 1.78118,-2.34765 0.33962,-3.42721z" fill="#272525"/><path d="M196.87653,193.18989c0.22507,-1.07891 -2.87707,-0.90847 -2.69085,-1.5522c0.18623,-0.64186 1.63916,-0.15984 2.54817,0.22102c1.52194,0.63748 1.10728,2.9252 -1.12737,2.7947c-1.43084,-0.08304 -1.61773,-0.03872 -1.62777,-0.45767c-0.01607,-0.66933 2.67277,0.07243 2.89784,-1.00587z" fill="#272525"/><path d="M197.03864,189.46549c0.33895,-1.17133 -2.75315,-1.28434 -2.48855,-1.97428c0.2646,-0.68931 1.65122,-0.01374 2.50932,0.49512c1.43687,0.85227 0.74422,3.33167 -1.46432,2.96827c-1.41409,-0.23415 -1.60568,-0.20229 -1.56346,-0.66621c0.06565,-0.73739 2.55821,0.72865 3.00703,-0.82293z" fill="#272525"/><path d="M256.75787,209.23883c-0.83667,0.89973 2.68081,2.90084 2.13352,3.40784c-0.54729,0.50636 -2.11679,-1.17883 -2.76453,-2.05918c-1.08049,-1.47353 0.63101,-3.41658 2.68616,-2.02111c1.31495,0.89535 1.51925,0.95779 1.28613,1.36551c-0.37111,0.64249 -2.50463,-1.59403 -3.34129,-0.69305z" fill="#272525"/><path d="M254.12061,212.30326c-0.99677,0.92345 1.88366,2.7897 1.23456,3.2967c-0.64978,0.50699 -1.58089,-0.9247 -2.10606,-1.8981c-0.87886,-1.62899 1.21045,-3.59828 3.10483,-1.99424c1.21381,1.02584 1.81332,1.46978 1.5072,1.88874c-0.48767,0.66496 -2.41822,-2.5156 -3.74053,-1.29309z" fill="#272525"/><path d="M265.4668,199.87506c-0.57944,0.86226 2.63124,2.07355 2.24003,2.57055c-0.3912,0.49575 -1.92855,-0.70804 -2.58635,-1.35927c-1.10261,-1.09077 0.07034,-2.94331 1.97543,-2.04421c1.2205,0.57443 1.4007,0.60127 1.25868,0.97214c-0.22307,0.58692 -2.30769,-1.00338 -2.8878,-0.13924z" fill="#272525"/><path d="M263.66954,202.78716c-0.71139,0.90409 1.9473,2.08791 1.47103,2.59678c-0.47628,0.50887 -1.44691,-0.56505 -2.01496,-1.31182c-0.95321,-1.24875 0.53254,-3.17058 2.33113,-2.07916c1.15216,0.69992 1.71552,0.99276 1.51324,1.3836c-0.31818,0.62 -2.35792,-1.78696 -3.30043,-0.5894z" fill="#272525"/><path d="M274.64531,179.69839c-0.43609,-1.25999 -0.12124,-2.51061 0.70604,-2.79283c0.82527,-0.28221 1.84884,0.50949 2.28559,1.76949c0.43609,1.25999 0.12192,2.51061 -0.70537,2.79283c-0.82662,0.28221 -1.85017,-0.50949 -2.28625,-1.76949z" fill="#272525"/><path d="M279.96673,178.14183c0.07569,-1.07706 0.71005,-1.90934 1.41542,-1.86065c0.70604,0.04933 1.21514,0.96154 1.14078,2.03859c-0.07569,1.07643 -0.71073,1.90934 -1.41542,1.86001c-0.70604,-0.04933 -1.21714,-0.96216 -1.14078,-2.03797z" fill="#272525"/><path d="M258.75955,165.77919c1.80328,0.47515 2.68483,2.33953 3.64273,3.94791c0.99139,-1.97366 1.94999,-4.49613 4.15719,-4.24014c2.42893,0.25599 3.20263,2.85152 3.38684,5.26411c4.81768,-2.37637 10.44656,-2.33953 13.3913,2.0467c2.025,3.03384 3.01707,5.99463 1.98817,9.50362c-1.4717,5.04433 -7.32163,6.36113 -12.54659,5.52009c-1.17762,-0.18294 -1.94999,-1.49787 -3.12693,-1.71828c-2.68616,-0.54821 -4.93223,0.18294 -7.21178,-1.31556c-0.51513,3.14435 4.04666,3.69192 7.21178,3.69192c0,2.70479 -1.61973,4.93444 -4.12101,5.95841c-1.12337,0.45017 -3.14436,-0.21978 -4.19403,0.25599c-0.5868,0.91345 -1.17762,2.13662 -1.10327,3.39847c2.79602,0 6.55062,-2.55868 7.21178,0.14611c0.66183,2.70479 -0.29541,5.19106 -1.98749,7.34765c-1.14145,1.46228 -3.67957,1.60839 -5.48219,1.0964c-2.13352,-0.62126 -2.83219,-2.88711 -5.04074,-3.17994c-1.65591,-0.21853 -2.53812,1.20629 -3.38483,2.63175c2.83219,0.84103 5.70325,-0.40148 7.39533,1.93745c1.69409,2.30457 0.47828,4.86513 -2.1697,5.9965c-3.34934,1.42544 -5.70257,3.94605 -7.94796,1.09701c-1.34509,-1.72515 -2.11008,-3.41283 -3.75327,-4.49551c-0.51446,-0.33965 -3.03717,-2.40947 -3.64273,-2.08417c-2.72167,1.46041 -7.87227,3.509 -13.7222,2.66796c-2.98091,-0.43956 -4.48945,-1.60964 -7.50585,-1.75574c-1.58959,-0.08304 -2.80539,0.63999 -4.12101,0.65872c-1.5159,0.02311 -3.10415,-0.71241 -4.56179,-1.82817c-1.65591,-1.27935 -2.35526,-0.54757 -3.31182,1.2806c-0.95657,1.86438 -0.22107,4.20392 -1.58222,5.81231c-1.14078,1.35303 -2.35458,-0.47515 -3.9368,-1.24251c-2.75918,-1.3524 -6.32822,-3.98475 -5.88679,-7.01797c0.5158,-3.50836 6.99073,-4.82393 6.58612,-8.37037c-0.22307,-1.91808 -1.76443,-4.08653 -3.75327,-4.38561c-0.96528,-0.14423 -2.20118,1.07517 -3.12693,1.20692c-2.53812,0.36588 -3.05392,-3.47278 -2.64865,-5.99525c0.51446,-3.21741 1.72892,-5.84852 4.78284,-7.05481c3.2743,-1.27935 4.63615,1.46228 7.43217,3.54584l3.23746,-4.38624c-1.09054,-1.23127 -0.93581,-3.19867 -1.39801,-4.53297c-0.56804,-1.63774 -2.092,-2.27335 -3.9368,-3.17994c1.94931,-1.13324 4.30389,-1.24313 6.07033,0.10989c1.19771,0.92095 1.72692,2.8072 2.83286,3.509c0.69399,0.4408 1.89372,0.1305 2.75918,-0.2922c4.4526,-2.19344 7.61638,-3.10689 12.50975,-2.19344c5.15061,0.95029 8.90385,3.43594 14.05446,2.63175c5.18676,-0.80357 10.37489,-5.84791 9.34463,-8.18743c1.10327,-2.63175 4.41508,-4.56917 7.20977,-3.80682z" fill="#babaff"/><path d="M234.76751,177.70788c0,-1.52222 0.55868,-2.3464 0.51044,-3.86863c-0.1755,-4.74026 -1.30825,-6.46853 -2.61716,-11.03396c-1.75505,-6.11951 1.14881,-14.50611 7.5313,-15.40958c2.55219,-0.3484 3.94216,1.31556 5.74477,3.10751c3.47927,3.45654 3.86246,7.62549 2.29831,12.30269c-1.38797,4.16957 -2.234,6.29371 -4.85117,9.76585c-1.7872,2.37824 -3.44647,4.18582 -5.42525,5.58066c-1.01753,0.71679 -1.9473,-0.44393 -3.19124,-0.44456z" fill="#96e700"/><path d="M234.07486,176.72823c0.71943,-2.56118 0.92038,-4.72403 -0.05828,-7.31768c-1.81736,-4.81705 -2.33917,-7.95767 -2.17506,-13.13811c0.069,-2.17157 0.80919,-4.19206 1.97208,-6.02147c1.55208,-2.44005 4.33336,-4.14773 7.30756,-3.65884c3.2301,0.53196 6.87885,4.37625 7.91648,7.37575c2.55754,7.39323 -3.77805,19.06341 -9.73851,23.48649h-0.20297c-0.76365,-0.45204 3.66886,-5.05182 4.11432,-5.7686c2.85363,-4.59041 6.03952,-11.47727 4.2905,-16.94056c-1.66529,-5.20043 -8.81611,-9.12337 -12.64372,-3.25549c-1.76644,2.70917 -2.1054,8.14934 -1.53667,11.26497c0.42402,2.32643 1.045,4.67345 1.94261,6.85689c0.99809,2.42633 1.83342,6.05269 0.40594,8.44155c-0.95725,0.4302 -1.89103,-0.27223 -1.59428,-1.32492z" fill="#272525"/><path d="M241.46616,149.96376c0.12058,0.00188 -0.06632,1.07517 -0.15675,1.52409c-0.38248,1.90559 -0.00135,3.90609 0.56403,5.73676c1.86423,-0.83166 1.4268,-4.99688 3.18991,-4.75399c-0.59618,0.30095 -1.20241,1.7751 -1.59494,3.5146c-0.25321,1.24624 -0.89025,1.40672 -1.44959,1.67082c0.32823,1.70079 0.53389,3.47028 -0.63838,5.09928c1.49916,-0.69992 1.605,1.95367 4.66965,-0.1436c-0.41733,0.74988 -1.00078,0.9428 -1.59494,1.18131c-1.08719,0.43644 -2.1429,-0.5251 -3.11353,-0.79608c-0.92643,1.33116 -2.8409,4.37499 -2.39544,7.65235c0.069,0.51137 0.00335,0.93719 0.2043,1.44106c0.79715,-1.36926 2.00893,-2.09852 3.36339,-2.82343c0.48431,-0.25974 0.79111,-0.70492 1.39131,-1.03709c-0.67388,1.36427 -2.18912,1.71079 -3.27632,2.62175c-1.87898,1.5728 -1.73361,5.69805 -3.18186,5.81107c-0.38719,-0.32904 0.03215,-0.22228 0.25121,-0.91345c2.09802,-4.07468 -0.42402,-6.15884 1.18902,-9.88199c0.56002,-1.29309 -0.54393,-2.99138 -1.33438,-3.9473c-0.87216,0.44268 -2.94138,0.46516 -3.16981,0.12549c1.29217,0.20605 2.73374,-0.53947 2.82215,-0.67307c-1.28146,-1.55533 -2.23334,-3.39473 -2.23334,-5.44517c0,0 0.70202,2.62737 1.97208,4.26386c0.92374,1.18943 2.44701,3.20554 2.49257,4.72464c3.44378,-5.38649 2.02031,-4.9975 1.39198,-10.80356c-1.10462,-0.61626 -2.06386,-0.75112 -2.37669,-2.13225c-0.15206,-0.6737 -0.60891,-1.87313 -0.60891,-1.87313c1.03025,1.18007 1.01351,3.23614 2.92999,3.39973c0.08909,-0.81044 0.15006,-2.97078 0.69331,-3.54271z" fill="#272525"/><path d="M270.84851,169.40307c-0.01875,0.32967 -0.76833,0.64873 -0.83466,0.14611c-0.45015,-3.3991 -5.23633,-4.64223 -7.00278,0.32904c-0.12928,0.36527 -0.66719,-0.21416 -0.51379,-0.58504c3.27363,-7.85839 8.512,-2.63175 8.35123,0.10989z" fill="#272525"/><path d="M262.23872,168.27045c0.22107,0.50699 -0.2579,1.01773 -0.58881,0.58504c-2.20721,-2.88774 -5.26649,-2.93955 -6.3222,-2.14972c-1.35247,1.01212 -2.65534,5.07368 -0.00603,7.48626c0.24986,0.22852 0.49167,1.56093 -0.7958,0.78422c-3.65479,-2.20404 -4.04198,-8.42406 0.3001,-10.13049c3.8437,-1.51037 6.43407,1.17944 7.41274,3.4247z" fill="#272525"/><path d="M263.08475,170.69115c2.21391,4.47427 -3.91804,7.70291 -6.01742,3.42096c-2.42223,-4.9363 4.18666,-7.11851 6.01742,-3.42096z" fill="#272525"/><path d="M269.6039,186.63396c-2.14424,0.44519 -4.40235,-0.03496 -6.18354,-1.29495c-0.01943,0.8479 0.88221,1.8544 1.605,2.22466c1.61504,0.8323 5.59606,-0.18981 6.18354,1.36176c1.27342,3.35227 -6.40593,7.5924 -9.32721,6.37799c-0.53187,-0.22102 -0.88423,-1.05332 -0.41397,-1.00524c4.08351,0.40335 7.73226,-1.91059 8.13619,-4.34129c0.08374,-0.50699 -0.04487,-0.92345 -0.57006,-1.09579c-2.18577,-0.72115 -5.50763,0.63436 -6.65378,-2.62425c-0.31551,-0.89723 -0.46958,-1.9699 -0.16746,-2.88962c1.75304,2.14161 4.67298,1.99488 6.88689,1.69455c1.66195,-0.22603 3.62062,2.07667 5.48419,2.39074c3.15305,0.53322 5.80238,0.00812 8.02434,-2.39074c5.65703,-6.11388 0.79311,-16.06144 -7.95734,-14.51485c-1.15351,0.20355 -2.29831,0.46328 -3.44445,0.69742c-0.29273,-0.38212 -0.11723,-0.87975 0.069,-1.26186c3.43709,-1.81381 9.05391,-1.11389 12.03415,1.36176c5.8218,4.83516 4.23289,15.19042 -3.37546,17.20527c-3.57507,0.94343 -7.41943,0.53571 -10.33001,-1.8956z" fill="#272525"/><path d="M269.20197,169.56166c3.14703,3.3404 -0.60556,6.993 -3.20933,4.9488c-1.5695,-1.2319 -1.4007,-5.23538 0.9693,-5.51385c0.72547,-0.0843 1.71284,0.00624 2.24003,0.56505z" fill="#272525"/><path d="M262.21527,171.62147c0.6002,1.82506 -0.08641,3.3017 -1.81601,3.33791c-1.20777,0.0462 -2.44701,-1.29995 -2.02836,-3.17244c0.24785,-1.11076 1.15351,-1.60714 2.03506,-1.5497c0.77168,0.05058 1.52663,0.52572 1.80932,1.38423z" fill="#ffffff"/><path d="M261.24598,172.72974c0.30478,0 0.58077,0.123 0.78039,0.32155c0.19963,0.19856 0.32355,0.47266 0.32355,0.77485c0,0.30219 -0.12392,0.57631 -0.32355,0.77485c-0.19963,0.19856 -0.47561,0.32155 -0.78039,0.32155c-0.30478,0 -0.58077,-0.123 -0.78039,-0.32155c-0.19963,-0.19856 -0.32355,-0.47266 -0.32355,-0.77485c0,-0.30219 0.12392,-0.57631 0.32355,-0.77485c0.19963,-0.19856 0.47561,-0.32155 0.78039,-0.32155z" fill="#272525"/><path d="M268.17641,173.81615c-0.45083,0.17169 -0.90634,0.09302 -1.19705,-0.08179c-1.01886,-0.61189 -1.49112,-2.87462 -0.01408,-3.42595c2.09266,-0.78297 3.41565,2.66734 1.21112,3.50774z" fill="#ffffff"/><path d="M268.20789,172.16218c0.25121,0 0.47896,0.10115 0.64374,0.26536c0.16545,0.16359 0.26728,0.39024 0.26728,0.63999c0,0.24975 -0.10183,0.4764 -0.26728,0.63999c-0.16478,0.16422 -0.39254,0.26536 -0.64374,0.26536c-0.25121,0 -0.47896,-0.10115 -0.64374,-0.26536c-0.16545,-0.16359 -0.26728,-0.39024 -0.26728,-0.63999c0,-0.24975 0.10183,-0.4764 0.26728,-0.63999c0.16478,-0.16422 0.39254,-0.26536 0.64374,-0.26536z" fill="#272525"/><path d="M251.38218,172.75034c-1.88165,2.28584 -2.65869,3.46653 -5.5485,4.78272c-4.38226,1.9955 -8.34185,0.76923 -13.7068,-1.36176c-9.48531,-3.76873 -16.48205,4.02785 -19.32362,2.15909c-1.38327,-0.90972 -1.59696,-3.18119 -3.37679,-4.15146c-1.2493,-0.68119 -3.11087,-0.84852 -4.34609,-0.06619c0.83667,0.32092 1.74098,0.47827 2.50731,0.96278c3.50474,2.21653 -0.45484,4.81394 3.3433,6.37737c-3.99173,3.81494 -4.89068,8.63761 -4.14514,13.38535c-0.54929,0.10615 -1.06576,0.3203 -1.605,0.46453c-2.4343,-4.49114 0.46088,-9.84765 3.84436,-12.91957c-0.50575,-0.76923 -1.44155,-1.41358 -1.53801,-2.39198c-0.11923,-1.21191 0.74355,-1.76013 -0.16746,-2.9227c-1.045,-1.33367 -2.48119,-2.21466 -4.14579,-2.55806c1.74098,-1.70765 4.73864,-2.57555 6.7201,-1.76013c2.39276,0.98465 2.09467,2.94893 3.54359,4.31818c1.02155,0.96404 2.80206,-0.32468 3.67757,-0.89723c2.3874,-1.56157 4.95299,-2.99388 7.85685,-3.25486c6.52784,-0.58753 11.15327,3.54395 17.2504,4.15209c4.35278,0.43393 5.79501,-5.65996 9.15974,-5.04869z" fill="#272525"/><path d="M282.96237,176.38421c-0.19293,-0.72989 -0.41397,-1.64398 -1.37122,-1.7907c-0.81322,-0.12426 -1.65591,0.73115 -1.97208,1.39174c-0.21101,-3.248 4.19403,-3.1481 3.3433,0.39898z" fill="#272525"/><path d="M272.81322,178.89482c-3.43038,-4.00038 2.01496,-7.15721 4.71385,-3.35477c0.1266,0.17983 0.65915,0.85165 0.42268,0.62499c-1.14212,-1.09266 -3.14033,-1.29995 -3.8658,-0.95779c-1.13074,0.53322 -1.72759,1.50662 -1.27074,3.68756z" fill="#272525"/><path d="M204.74678,196.61833v0.46516c-0.8313,0.54009 -1.12202,1.99675 -2.24003,0.8966c-0.72614,-0.71491 -1.97745,-2.66982 -2.90855,-2.95455c-1.4094,-0.42958 -2.17573,2.24151 -4.24561,1.19568c-4.62476,-2.3364 -1.13006,-12.39759 3.37679,-14.58166c1.3404,-0.64935 2.59841,-0.36339 3.84436,0.46579c1.00949,0.67058 2.91794,1.79008 3.71173,2.62362c0.22507,0.23726 0.31551,0.7174 0.23378,1.02897c-0.6491,2.46752 -5.16065,-4.04845 -8.42491,-1.82629c-3.03449,2.06481 -5.47615,9.81518 -1.43753,10.5276c1.55141,0.27347 2.83622,-1.99863 4.48006,-0.73052c1.25868,0.9734 2.13084,2.13473 3.6099,2.88962z" fill="#272525"/><path d="M213.60575,195.80103c1.83207,1.67082 -2.18176,2.14473 -3.20999,1.82629c-1.4047,-0.43456 -3.4679,-1.50163 -4.81432,-0.23227c-1.1602,1.09454 -0.79514,3.71691 -2.00557,5.1817c-1.9406,2.34827 -7.28278,2.76286 -5.0816,6.90746c0.70202,1.3218 4.42983,4.25323 5.86937,4.69591c0.86547,0.26786 2.6299,-0.04558 3.04253,-0.96342c0.6558,-1.45854 -1.13074,-4.53546 1.91112,-5.40523c0.30881,0.25974 0.75897,0.48139 0.86881,0.89723c-2.10606,2.02797 0.6558,5.76985 -2.64129,7.24087c-4.1505,1.85127 -12.90497,-6.12575 -10.88935,-10.0512c1.03495,-2.01611 4.59125,-2.92458 5.85062,-5.58066c1.0624,-2.24088 1.01418,-4.09465 3.71105,-4.91571c2.51132,-0.76673 2.93267,-0.25473 5.28256,0.3996c0.69466,0.19231 1.4027,-0.05619 2.10606,-0.00062z" fill="#272525"/><path d="M207.42089,204.17141l0.40125,-0.0999c8.6875,12.21652 18.86076,1.77573 13.47303,-7.97139c0.07235,-0.32155 0.3577,-0.55069 0.63503,-0.6968c1.45896,0.32717 1.72356,1.86501 2.00625,3.08816c0.95321,4.12588 -0.00939,8.31917 -3.20933,11.25936c-4.63615,4.25886 -11.94037,-0.4739 -13.30622,-5.57941z" fill="#272525"/><path d="M253.72338,204.9681c-0.20164,-0.16422 -0.78642,-0.4533 -0.56804,-0.79671c0.13263,-0.21104 3.71038,-2.57679 4.71318,-3.98601c1.03025,-1.44792 2.16301,-3.10689 2.90855,-4.71653c0.28469,-0.08054 0.63101,0.10303 0.70335,0.39898c0.56336,2.35702 -5.2906,9.46303 -7.75704,9.10026z" fill="#272525"/><path d="M255.62177,204.0846c0.0998,-0.31656 0.35838,-0.53322 0.63503,-0.69742c2.49593,0.36963 2.72702,3.68445 5.95108,3.02322c3.11287,-0.63936 7.41005,-6.0658 3.8437,-7.90583c-1.61036,-0.82917 -4.39565,0.83916 -6.5178,-0.13174c0.18555,-0.44393 0.47628,-0.95405 0.73618,-1.36302c0.76833,-1.21504 1.52128,0.16422 2.34051,0.23289c1.86894,0.15672 3.70436,-0.84228 5.44936,0.56382c1.14748,0.92532 1.28681,2.83342 0.9693,4.15209c-0.75025,3.12063 -3.0546,5.52946 -6.18487,6.27685c-2.60778,0.62188 -3.92742,-1.87063 -6.18287,-2.95579c-0.40661,-0.19419 -0.89895,-0.77422 -1.03963,-1.19505z" fill="#272525"/><path d="M259.97591,208.15616c0.8648,1.20255 0.62766,2.82905 0.06699,4.11838c-1.43552,3.3017 -5.42726,4.91071 -8.82616,4.64972c-3.75527,-0.28784 -3.52953,-4.47053 -5.9176,-5.58066c-2.7411,-1.27122 -5.88277,-2.90272 -5.88277,-6.47664c0,-1.23002 1.62912,-2.67107 2.1074,-1.65896c0.6049,1.28372 -0.57207,4.22577 2.87573,6.27685c2.28224,1.36114 2.90186,1.10951 4.00982,3.68632c0.59149,1.37363 3.11219,2.34391 4.51355,2.05981c1.98749,-0.40335 7.21311,-2.94643 6.55062,-5.47952c-1.00479,-3.85427 -6.54124,-2.19593 -9.29306,-4.15146c-1.55074,-1.10327 -3.02914,-2.81344 -2.80741,-4.88262c0.06431,-0.59753 1.12471,-1.69767 1.67131,-1.26186c0.23847,0.19231 0.09379,1.91808 0.50172,2.55806c1.26068,1.97677 2.97086,4.17832 5.61682,3.98726c3.06597,-0.22665 4.3327,1.48976 4.81298,2.15534z" fill="#272525"/><path d="M219.5957,210.08736c0.08507,-0.65372 0.7402,-0.97528 1.13676,-1.42858c0.31083,-0.02997 5.71865,1.46728 7.71686,1.62338c4.02388,0.31719 7.49848,0.50012 10.96571,-1.65959c0.66183,-0.03308 1.73831,0.65122 1.06978,1.36239c-1.23858,1.31368 -7.23321,2.29771 -9.09344,2.39136c-3.2877,0.16422 -8.8697,-0.71054 -11.79568,-2.28897z" fill="#272525"/><path d="M234.38703,179.52857c-2.28156,-1.60839 -4.1947,-3.69256 -6.25521,-6.43357c-3.01707,-4.00286 -3.99173,-6.45168 -5.59272,-11.25873c-1.80261,-5.39148 -1.36117,-10.19793 2.64933,-14.18268c2.07861,-2.06544 3.67957,-3.98413 6.62297,-3.58204c7.35848,1.04145 10.70646,10.70991 8.68281,17.76473c-1.50854,5.26411 -3.33124,7.76785 -3.5322,13.23239c-0.0556,1.75449 0.44145,2.8509 0.44145,4.60539c-1.43419,0.00062 -1.84414,0.68119 -3.01641,-0.14548z" fill="#96e700"/><path d="M237.02629,179.41493c-1.64586,-2.75411 -0.6826,-6.93431 0.46824,-9.73151c1.03495,-2.51686 1.75036,-5.22352 2.24003,-7.90522c0.6558,-3.59204 0.26526,-9.86388 -1.77246,-12.98701c-4.4124,-6.76448 -12.65645,-2.24214 -14.57628,3.75374c-2.01631,6.29744 1.65658,14.23763 4.94829,19.52983c0.51379,0.82606 5.62285,6.12948 4.74198,6.65022h-0.23445c-6.87216,-5.09991 -14.17571,-18.55393 -11.22763,-27.07728c1.19571,-3.45779 5.40247,-7.89023 9.12692,-8.50274c3.42905,-0.56382 6.63569,1.40484 8.42491,4.21828c1.34108,2.10914 2.19314,4.43805 2.27352,6.94181c0.18891,5.97153 -0.41196,9.5929 -2.50731,15.14548c-1.12805,2.99014 -2.11679,6.71515 -0.49771,10.29783c0.51915,1.14949 -0.30478,0.16233 -1.40805,-0.33341z" fill="#272525"/><path d="M231.14219,151.11637c2.20988,-0.18856 2.18979,-2.55931 3.37679,-3.9192c0,0 -0.52651,1.38299 -0.70202,2.15909c-0.36106,1.59278 -1.467,1.74825 -2.74176,2.45816c-0.72278,6.69392 -2.36597,6.245 1.605,12.45504c0.05426,-1.75138 1.81066,-4.0753 2.87507,-5.44705c1.46432,-1.88686 2.27352,-4.91571 2.27352,-4.91571c0,2.36327 -1.09723,4.48426 -2.5743,6.27747c0.10115,0.15422 1.76309,1.01336 3.25287,0.77547c-0.26325,0.39148 -2.64933,0.36527 -3.65479,-0.14423c-0.91102,1.10203 -2.1831,3.06006 -1.53801,4.55045c1.85955,4.29258 -1.04968,6.69517 1.37054,11.39235c0.25255,0.79733 1.10394,1.51411 0.65714,1.89372c-1.66999,-0.12987 -1.86959,-5.72677 -4.03394,-7.53995c-1.25399,-1.0502 -3.001,-1.44918 -3.77805,-3.02259c0.69264,0.38274 1.04432,0.8966 1.605,1.19568c1.56212,0.83604 2.95881,1.67707 3.87853,3.25549c0.22977,-0.58129 0.15341,-1.07205 0.23378,-1.66083c0.51311,-3.7781 -1.69409,-7.28708 -2.76119,-8.82242c-1.12001,0.31218 -2.33716,1.42044 -3.59048,0.91783c-0.68527,-0.27472 -1.35848,-0.497 -1.83879,-1.36176c3.53421,2.4182 3.65613,-0.64124 5.38239,0.16608c-1.35179,-1.87874 -1.11466,-3.91857 -0.73552,-5.87912c-0.64508,-0.30407 -1.17294,-0.83604 -1.50451,-1.46166c-1.44223,0.26036 -2.1094,2.67982 -3.77805,1.86001c0.58211,-0.1817 0.99943,-0.26911 1.37054,-0.49825c0.8447,-0.52136 1.1361,-1.43357 2.24003,-1.82692c-0.45282,-2.00549 -1.15149,-3.70505 -1.83879,-4.0522c2.03238,-0.27972 1.52797,4.52172 3.67757,5.48014c0.65177,-2.11039 1.09054,-4.41684 0.64978,-6.61338c-0.10384,-0.51761 -0.32087,-1.75511 -0.18154,-1.75699c0.63034,0.66058 0.70068,3.15059 0.80318,4.08527z" fill="#272525"/><path d="M240.38299,181.50221c-1.47103,-0.84103 -2.74713,-1.19879 -4.5082,-0.78858c-1.59494,0.37088 -2.55487,1.19068 -3.76934,3.34728c-0.18957,0.33654 -1.14078,0.03684 -0.95657,-0.51199c0.40192,-1.57155 1.07111,-2.77284 2.55286,-3.79869c2.26415,-1.56718 5.98325,-0.2585 6.68125,1.752z" fill="#272525"/></g></g></svg>