<svg version="1.1" xmlns="http://www.w3.org/2000/svg" xmlns:xlink="http://www.w3.org/1999/xlink" width="23.35406" height="46.78578" viewBox="0,0,23.35406,46.78578"><g transform="translate(-228.32297,-156.60711)"><g data-paper-data="{&quot;isPaintingLayer&quot;:true}" fill-rule="nonzero" stroke="none" stroke-width="1" stroke-linecap="butt" stroke-linejoin="miter" stroke-miterlimit="10" stroke-dasharray="" stroke-dashoffset="0" style="mix-blend-mode: normal"><path d="M232.65026,162.9239c0,0 -3.16992,-2.11332 -0.52832,-4.75496c2.6416,-2.64164 20.86865,-2.55359 14.17659,5.19524c0,0 1.84912,22.10176 5.2832,34.6936c1.14469,4.22663 -8.27702,5.63551 -14.61686,5.28329c-7.7487,-0.44027 -9.2456,-2.64164 -8.45312,-5.37134c0.96859,-4.13858 4.05046,-26.68061 4.13851,-35.04582z" fill="#cae8de"/><path d="M230.36087,198.85027c2.81771,-19.46012 1.93717,-25.62396 3.69824,-28.97004c1.14469,-2.20137 8.98144,-2.02526 10.74251,0.08805c1.40885,1.67304 2.11328,17.96319 4.66683,28.61782c0.88053,3.78636 -19.72396,4.66691 -19.10758,0.26416z" fill="#73b5e4"/><path d="M233.97106,169.88023c0.08805,0 0.08805,-0.08805 0.08805,-0.08805c0.17611,-0.17611 0.44027,-0.44027 0.70443,-0.61638c2.37744,-1.40888 8.54118,-1.05666 10.03808,0.79249c-0.17611,1.7611 -11.27083,1.05666 -10.83057,-0.08805z" fill="#83cdef"/><path d="M249.46845,198.67416c0.52832,3.6983 -17.87484,4.31469 -19.10758,0.79249c-0.26416,-0.44027 -0.35221,-1.7611 8.71728,-2.37748c10.5664,-0.70444 10.3903,1.58499 10.3903,1.58499z" fill="#679fe4"/><path d="M245.85826,159.2256c0,0.88055 -2.55355,1.7611 -6.51595,1.7611c-3.9624,0 -6.78011,-0.35222 -6.78011,-1.23277c0,-0.88055 2.90576,-2.02526 6.78011,-2.02526c3.87435,0 6.51595,0.61638 6.51595,1.49693z" fill="#b6cfd1"/><path d="M245.85826,159.2256c0,0 0,0.08805 0,0.17611c0,0.08805 -0.08805,0.26416 -0.26416,0.35222c-0.17611,0.08805 -0.35221,0.26416 -0.61637,0.35222c-0.26416,0.08805 -0.52832,0.17611 -0.88053,0.26416c-0.61637,0.17611 -1.40885,0.26416 -2.20133,0.35222c-0.79248,0.08805 -1.67301,0.08805 -2.55355,0.17611c-0.88053,0 -1.76107,0 -2.55355,-0.08805c-0.79248,0 -1.58496,-0.17611 -2.28939,-0.26416c-0.61637,-0.08805 -1.23275,-0.26416 -1.58496,-0.44027c-0.17611,-0.08805 -0.26416,-0.17611 -0.35221,-0.26416c-0.08805,-0.08805 0,-0.17611 0,-0.17611c0,0 0,0.08805 0,0.17611c0.08805,0.08805 0.17611,0.17611 0.35221,0.26416c0.35221,0.17611 0.88053,0.26416 1.49691,0.26416c0.61637,0.08805 1.40885,0.08805 2.20133,0.08805c0.79248,0 1.67301,0 2.55355,0c0.88053,0 1.76107,0 2.55355,-0.08805c0.79248,-0.08805 1.58496,-0.08805 2.20133,-0.26416c0.61637,-0.08805 1.14469,-0.26416 1.49691,-0.44027c0.17611,-0.08805 0.26416,-0.17611 0.26416,-0.26416c0.26416,-0.08805 0.17611,-0.17611 0.17611,-0.17611z" fill="#96b7c4"/><path d="M232.65026,162.9239c0,0 0.35221,0.08805 0.79248,0.26416c0.44027,0.08805 1.14469,0.26416 1.76107,0.35222c0.35221,0.08805 0.61637,0.08805 0.96859,0.17611c0.26416,0.08805 0.61637,0.08805 0.79248,0.17611c0.52832,0.08805 0.79248,0.17611 0.79248,0.17611c0,0 -0.35221,0.08805 -0.79248,0.08805c-0.52832,0 -1.14469,0 -1.84912,-0.08805c-0.70443,-0.08805 -1.3208,-0.35222 -1.76107,-0.61638c-0.44027,-0.35222 -0.70443,-0.52833 -0.70443,-0.52833z" fill="#96b7c4"/><path d="M247.79544,160.1942c0,0 0,0.08805 0,0.35222c0,0.17611 -0.08805,0.52833 -0.26416,0.88055c-0.17611,0.35222 -0.35221,0.79249 -0.70443,1.14471c-0.17611,0.17611 -0.35221,0.35222 -0.52832,0.52833c-0.17611,0.17611 -0.44027,0.35222 -0.61637,0.44027c-0.26416,0.17611 -0.44027,0.26416 -0.70443,0.35222c-0.26416,0.08805 -0.52832,0.17611 -0.70443,0.17611c-0.26416,0 -0.44027,0.08805 -0.70443,0.08805c-0.26416,0 -0.44027,0 -0.61637,0c-0.35221,0 -0.70443,-0.08805 -0.88053,-0.08805c-0.17611,0 -0.35221,-0.08805 -0.35221,-0.08805c0,0 0.08805,0 0.35221,0c0.26416,0 0.52832,0 0.88053,-0.08805c0.17611,0 0.35221,0 0.61637,-0.08805c0.17611,-0.08805 0.44027,-0.08805 0.61637,-0.17611c0.17611,-0.08805 0.44027,-0.17611 0.70443,-0.26416c0.17611,-0.08805 0.44027,-0.17611 0.61637,-0.35222c0.17611,-0.17611 0.44027,-0.26416 0.61637,-0.44027c0.17611,-0.17611 0.35221,-0.35222 0.52832,-0.44027c0.26416,-0.35222 0.52832,-0.70444 0.70443,-1.05666c0.35221,-0.35222 0.44027,-0.88055 0.44027,-0.88055z" fill="#96b7c4"/><path d="M232.20999,159.75392c0,0 -0.08805,0.08805 -0.08805,0.35222c0,0.08805 0,0.26416 0.08805,0.35222c0.08805,0.17611 0.26416,0.26416 0.44027,0.35222c0.17611,0.08805 0.35221,0.17611 0.61637,0.26416c0.17611,0.08805 0.44027,0.08805 0.70443,0.17611c0.52832,0.08805 1.05664,0.17611 1.58496,0.26416c0.26416,0.08805 0.52832,0.08805 0.79248,0.08805c0.26416,0.08805 0.52832,0.08805 0.79248,0.08805c0.52832,0 0.96859,0.08805 1.40885,0.08805c0.79248,0.08805 1.40885,0.08805 1.40885,0.08805c0,0 -0.52832,0.08805 -1.40885,0.17611c-0.44027,0 -0.88053,0 -1.40885,0c-0.26416,0 -0.52832,0 -0.79248,0c-0.26416,0 -0.52832,0 -0.88053,-0.08805c-0.52832,-0.08805 -1.14469,-0.17611 -1.67301,-0.35222c-0.26416,-0.08805 -0.52832,-0.17611 -0.70443,-0.26416c-0.26416,-0.08805 -0.44027,-0.26416 -0.61637,-0.35222c-0.17611,-0.17611 -0.26416,-0.35222 -0.35221,-0.44027c-0.08805,-0.17611 -0.08805,-0.35222 -0.08805,-0.44027c0.08805,-0.26416 0.17611,-0.35222 0.17611,-0.35222z" fill="#ffffff"/><path d="M235.55602,191.71783c0,0 0.08805,0 0.26416,0c0.17611,0 0.44027,0.08805 0.61637,0.26416c0.08805,0.08805 0.17611,0.26416 0.17611,0.44027v0.17611v0.08805c0,0.08805 -0.08805,0.17611 -0.08805,0.26416c-0.17611,0.35222 -0.52832,0.52833 -0.88053,0.61638c-0.17611,0 -0.44027,0 -0.61637,-0.08805c-0.17611,-0.08805 -0.35221,-0.26416 -0.44027,-0.44027c-0.08805,-0.17611 -0.17611,-0.35222 -0.08805,-0.52833c0,-0.17611 0.08805,-0.35222 0.17611,-0.44027c0.17611,-0.26416 0.44027,-0.26416 0.61637,-0.35222c0.17611,0 0.26416,0 0.26416,0zM235.55602,191.71783c0,0 -0.08805,0 -0.17611,0.08805c-0.08805,0.08805 -0.26416,0.26416 -0.35221,0.44027c0,0.08805 -0.08805,0.17611 -0.08805,0.26416c0,0.08805 0,0.26416 0.08805,0.35222c0,0.08805 0.08805,0.17611 0.26416,0.26416c0.08805,0.08805 0.26416,0.17611 0.35221,0.17611c0.17611,0 0.35221,0 0.44027,-0.08805c0.08805,-0.08805 0.17611,-0.26416 0.26416,-0.35222c0,-0.08805 0,-0.26416 0,-0.35222c0,-0.08805 -0.08805,-0.17611 -0.08805,-0.26416c-0.08805,-0.17611 -0.26416,-0.35222 -0.35221,-0.44027c-0.26416,-0.08805 -0.35221,-0.08805 -0.35221,-0.08805z" fill="#abe2ff"/><path d="M246.29853,189.25229c0,0 0,0.17611 -0.17611,0.44027c-0.08805,0.08805 -0.08805,0.08805 -0.17611,0.08805c-0.08805,0 -0.17611,0 -0.26416,0c-0.26416,-0.08805 -0.44027,-0.26416 -0.44027,-0.52833c0,-0.08805 0,-0.26416 0.08805,-0.35222c0.08805,-0.08805 0.17611,-0.17611 0.26416,-0.17611c0.17611,-0.08805 0.44027,0 0.52832,0.17611c0.17611,0.17611 0.17611,0.35222 0.17611,0.35222zM246.29853,189.25229v0c0,-0.17611 -0.08805,-0.26416 -0.17611,-0.26416c-0.08805,0 -0.26416,0 -0.35221,0.08805l-0.08805,0.08805c0,0.08805 0,0.08805 0,0.17611c0,0.08805 0,0.17611 0.08805,0.26416c0,0 0.08805,0.08805 0.17611,0.08805c0.08805,0 0.08805,0 0.17611,0c0.17611,-0.26416 0.17611,-0.44027 0.17611,-0.44027z" fill="#abe2ff"/><path d="M244.36135,189.86868c0,0 -0.17611,0.08805 -0.44027,0.26416c-0.35221,0.17611 -0.88053,0.26416 -1.49691,0.08805c-0.35221,-0.08805 -0.61637,-0.26416 -0.88053,-0.52833c-0.08805,-0.08805 -0.08805,-0.17611 -0.17611,-0.26416c0,-0.08805 -0.08805,-0.17611 -0.08805,-0.26416c-0.08805,-0.17611 -0.08805,-0.35222 -0.17611,-0.52833c-0.08805,-0.79249 0.17611,-1.67304 0.88053,-2.20137c0.26416,-0.26416 0.70443,-0.44027 1.14469,-0.44027c0.44027,0 0.88053,0.08805 1.23275,0.26416c0.35221,0.17611 0.70443,0.52833 0.79248,0.88055c0.17611,0.35222 0.26416,0.70444 0.26416,1.05666c0,0.70444 -0.35221,1.14471 -0.61637,1.40888c-0.26416,0.17611 -0.44027,0.26416 -0.44027,0.26416zM244.2733,189.86868c0,0 0,0 0.08805,-0.08805c0.08805,-0.08805 0.17611,-0.17611 0.26416,-0.26416c0.17611,-0.26416 0.35221,-0.79249 0.26416,-1.32082c0,-0.26416 -0.08805,-0.52833 -0.26416,-0.79249c-0.17611,-0.26416 -0.35221,-0.52833 -0.70443,-0.70444c-0.17611,-0.26416 -0.52832,-0.35222 -0.88053,-0.35222c-0.35221,0 -0.70443,0.08805 -1.05664,0.26416c-0.35221,0.17611 -0.61637,0.52833 -0.70443,0.88055c-0.17611,0.35222 -0.17611,0.79249 0,1.05666c0.08805,0.35222 0.26416,0.61638 0.52832,0.88055c0.17611,0.26416 0.44027,0.35222 0.70443,0.52833c0.52832,0.26416 1.05664,0.26416 1.3208,0.08805c0.17611,-0.08805 0.26416,-0.08805 0.35221,-0.17611c0.08805,0 0.08805,0 0.08805,0z" fill="#abe2ff"/><path d="M241.10338,184.40928c0,0 -0.08805,0.08805 -0.26416,0.08805c-0.17611,0.08805 -0.44027,0.17611 -0.79248,0.08805c-0.17611,-0.08805 -0.35221,-0.17611 -0.44027,-0.35222c0,-0.08805 -0.08805,-0.08805 -0.08805,-0.17611c0,0 0,-0.08805 0,-0.17611c0,-0.08805 0,-0.17611 0,-0.35222c0,-0.44027 0.17611,-0.79249 0.52832,-1.14471c0.17611,-0.17611 0.44027,-0.26416 0.61637,-0.26416c0.26416,0 0.44027,0.08805 0.61637,0.17611c0.17611,0.08805 0.35221,0.35222 0.44027,0.52833c0.08805,0.17611 0.08805,0.44027 0.08805,0.61638c-0.08805,0.35222 -0.26416,0.52833 -0.44027,0.70444c-0.17611,0.17611 -0.26416,0.26416 -0.26416,0.26416zM241.10338,184.32122c0,0 0.08805,0 0.17611,-0.17611c0.08805,-0.08805 0.17611,-0.35222 0.17611,-0.61638c0,-0.08805 -0.08805,-0.26416 -0.08805,-0.35222c-0.08805,-0.17611 -0.17611,-0.26416 -0.26416,-0.35222c-0.08805,-0.08805 -0.26416,-0.17611 -0.44027,-0.17611c-0.17611,0 -0.35221,0 -0.52832,0.08805c-0.17611,0.08805 -0.35221,0.17611 -0.44027,0.35222c-0.08805,0.17611 -0.08805,0.35222 0,0.52833c0,0.17611 0.17611,0.26416 0.26416,0.35222c0.08805,0.08805 0.17611,0.17611 0.26416,0.26416c0.17611,0.17611 0.44027,0.17611 0.61637,0.17611c0.17611,0 0.26416,-0.08805 0.26416,-0.08805z" fill="#abe2ff"/><path d="M238.46178,175.7799c0,0 0,0.26416 -0.26416,0.52833c-0.08805,0.08805 -0.17611,0.08805 -0.26416,0.17611c-0.08805,0 -0.26416,0 -0.35221,0c-0.26416,-0.08805 -0.52832,-0.35222 -0.52832,-0.70444c0,-0.17611 0.08805,-0.35222 0.17611,-0.44027c0.08805,-0.08805 0.26416,-0.17611 0.35221,-0.26416c0.26416,-0.08805 0.52832,0 0.61637,0.17611c0.35221,0.26416 0.26416,0.52833 0.26416,0.52833zM238.46178,175.7799c0,0 0,-0.08805 0,-0.17611c0,-0.08805 -0.08805,-0.26416 -0.26416,-0.26416c-0.17611,-0.08805 -0.35221,-0.08805 -0.44027,0.08805c-0.08805,0.08805 -0.08805,0.08805 -0.17611,0.17611c0,0.08805 -0.08805,0.08805 -0.08805,0.17611c0,0.17611 0.08805,0.26416 0.17611,0.35222c0.08805,0.08805 0.17611,0.08805 0.26416,0.08805c0.08805,0 0.17611,0 0.26416,0c0.17611,-0.08805 0.26416,-0.17611 0.26416,-0.26416c0,-0.08805 0,-0.17611 0,-0.17611z" fill="#abe2ff"/><path d="M236.26044,190.2209c0,0 -0.26416,-0.08805 -0.35221,-0.44027c0,-0.08805 0,-0.17611 0,-0.35222c0,-0.08805 0.08805,-0.26416 0.17611,-0.35222c0.17611,-0.17611 0.52832,-0.26416 0.79248,-0.17611c0.08805,0.08805 0.26416,0.17611 0.35221,0.35222c0.08805,0.17611 0.08805,0.26416 0.08805,0.44027c-0.08805,0.26416 -0.26416,0.44027 -0.44027,0.52833c-0.44027,0.17611 -0.61637,0 -0.61637,0zM236.26044,190.2209c0,0 0.08805,0 0.17611,0c0.08805,0 0.26416,0 0.35221,-0.08805c0.08805,-0.08805 0.17611,-0.26416 0.17611,-0.44027c0,-0.08805 -0.08805,-0.17611 -0.08805,-0.17611c-0.08805,-0.08805 -0.08805,-0.08805 -0.17611,-0.08805c-0.08805,-0.08805 -0.26416,-0.08805 -0.44027,0c-0.08805,0 -0.17611,0.08805 -0.17611,0.17611c-0.08805,0 -0.08805,0.08805 -0.08805,0.17611c0,0.17611 0.08805,0.26416 0.17611,0.35222c0,0.08805 0.08805,0.08805 0.08805,0.08805z" fill="#abe2ff"/><path d="M234.76354,165.74165c0,0 0,0.44027 0,1.32082c0,0.88055 0,2.02526 0,3.52219c-0.08805,1.40888 -0.08805,3.16997 -0.17611,4.93107c-0.08805,1.84915 -0.26416,3.6983 -0.44027,5.63551c-0.17611,1.93721 -0.35221,3.87441 -0.61637,5.63551c-0.26416,1.7611 -0.52832,3.43414 -0.70443,4.93107c-0.17611,1.40888 -0.44027,2.64164 -0.61637,3.43414c-0.17611,0.79249 -0.26416,1.32082 -0.26416,1.32082c0,0 0,-0.44027 0.08805,-1.32082c0.08805,-0.88055 0.17611,-2.02526 0.26416,-3.52219c0.26416,-2.90581 0.61637,-6.69217 0.96859,-10.56658c0.35221,-3.87441 0.70443,-7.66077 0.96859,-10.56658c0.17611,-1.40888 0.26416,-2.64164 0.35221,-3.52219c0.08805,-0.79249 0.17611,-1.23277 0.17611,-1.23277z" fill="#ffffff"/><path d="M239.07815,203.34107c0,0 0.61637,0 1.67301,-0.17611c1.05664,-0.08805 2.6416,-0.35222 4.40267,-0.70444c0.88053,-0.17611 1.84912,-0.44027 2.81771,-0.79249c0.96859,-0.35222 2.02523,-0.88055 2.72965,-1.67304c0.35221,-0.44027 0.52832,-0.9686 0.44027,-1.49693c-0.08805,-0.52833 -0.26416,-1.14471 -0.44027,-1.7611c-0.26416,-1.14471 -0.61637,-2.37748 -0.79248,-3.61025c-0.96859,-4.84302 -1.67301,-9.77409 -2.11328,-13.47239c-0.44027,-3.6983 -0.61637,-6.16384 -0.61637,-6.16384c0,0 0.26416,2.46554 0.88053,6.16384c0.26416,1.84915 0.61637,3.96247 0.96859,6.25189c0.35221,2.28943 0.79248,4.75496 1.3208,7.13244c0.26416,1.23277 0.52832,2.37748 0.79248,3.61025c0.17611,0.61638 0.35221,1.14471 0.44027,1.7611c0.08805,0.61638 -0.17611,1.32082 -0.52832,1.7611c-0.79248,0.9686 -1.93717,1.40888 -2.90576,1.7611c-1.05664,0.35222 -2.02523,0.52833 -2.90576,0.70444c-1.84912,0.35222 -3.34603,0.44027 -4.49072,0.52833c-1.05664,0.17611 -1.67301,0.17611 -1.67301,0.17611z" fill="#96b7c4"/><path d="M239.51842,201.66802c0,0 1.93717,-0.08805 4.75488,-0.52833c0.70443,-0.08805 1.49691,-0.26416 2.20133,-0.52833c0.79248,-0.26416 1.58496,-0.52833 2.20133,-1.14471c0.26416,-0.26416 0.44027,-0.70444 0.35221,-1.05666c-0.08805,-0.44027 -0.17611,-0.88055 -0.26416,-1.40888c-0.17611,-0.88055 -0.35221,-1.84915 -0.52832,-2.81775c-0.35221,-1.84915 -0.61637,-3.78636 -0.88053,-5.54745c-0.26416,-1.7611 -0.44027,-3.43414 -0.52832,-4.84302c-0.08805,-1.40888 -0.17611,-2.64164 -0.26416,-3.43414c-0.08805,-0.79249 -0.08805,-1.32082 -0.08805,-1.32082c0,0 0.17611,1.93721 0.52832,4.75496c0.35221,2.81775 0.88053,6.60411 1.58496,10.39047c0.17611,0.9686 0.35221,1.84915 0.52832,2.81775c0.08805,0.44027 0.17611,0.88055 0.26416,1.40888c0.08805,0.52833 -0.08805,1.05666 -0.44027,1.40888c-0.70443,0.70444 -1.58496,0.9686 -2.37744,1.23277c-0.79248,0.26416 -1.58496,0.35222 -2.28939,0.44027c-1.40885,0.17611 -2.6416,0.26416 -3.43408,0.26416c-0.79248,-0.08805 -1.3208,-0.08805 -1.3208,-0.08805z" fill="#547dc6"/><path d="M249.46845,198.67416c0,0 0,-0.08805 -0.08805,-0.17611c-0.08805,-0.08805 -0.17611,-0.17611 -0.35221,-0.26416c-0.17611,-0.08805 -0.44027,-0.17611 -0.70443,-0.26416c-0.26416,-0.08805 -0.61637,-0.17611 -0.88053,-0.26416c-0.70443,-0.08805 -1.49691,-0.17611 -2.37744,-0.26416c-0.88053,-0.08805 -1.84912,-0.08805 -2.72965,-0.08805c-0.96859,0 -1.84912,0 -2.72965,0c-0.88053,0.08805 -1.67301,0.08805 -2.37744,0.08805c-1.40885,0.08805 -2.37744,0.08805 -2.37744,0.08805c0,0 0.96859,-0.17611 2.37744,-0.35222c0.70443,-0.08805 1.49691,-0.17611 2.37744,-0.26416c0.88053,0 1.84912,-0.08805 2.81771,-0.08805c0.96859,0 1.93717,0 2.81771,0.08805c0.88053,0.08805 1.67301,0.26416 2.37744,0.44027c0.35221,0.08805 0.70443,0.17611 0.96859,0.35222c0.26416,0.08805 0.52832,0.26416 0.61637,0.35222c0.17611,0.08805 0.26416,0.26416 0.35221,0.35222c-0.08805,0.17611 -0.08805,0.26416 -0.08805,0.26416z" fill="#547dc6"/><path d="M238.54983,197.70556c0,0 -0.08805,0.08805 -0.26416,0.17611c-0.17611,0.08805 -0.52832,0.26416 -0.96859,0.17611c-0.17611,0 -0.44027,-0.17611 -0.61637,-0.35222c-0.08805,-0.08805 -0.08805,-0.08805 -0.08805,-0.17611c0,-0.08805 -0.08805,-0.08805 -0.08805,-0.17611c-0.08805,-0.08805 -0.08805,-0.26416 -0.08805,-0.35222c-0.08805,-0.52833 0.08805,-1.05666 0.44027,-1.49693c0.17611,-0.17611 0.44027,-0.35222 0.70443,-0.35222c0.26416,-0.08805 0.61637,0 0.88053,0.08805c0.26416,0.08805 0.44027,0.35222 0.61637,0.52833c0.17611,0.26416 0.17611,0.44027 0.17611,0.70444c0,0.44027 -0.26416,0.79249 -0.35221,0.9686c-0.26416,0.17611 -0.35221,0.26416 -0.35221,0.26416zM238.54983,197.6175c0,0 0.08805,-0.08805 0.17611,-0.26416c0.08805,-0.17611 0.17611,-0.52833 0.08805,-0.88055c-0.08805,-0.17611 -0.08805,-0.35222 -0.17611,-0.44027c-0.08805,-0.17611 -0.26416,-0.26416 -0.44027,-0.35222c-0.17611,-0.08805 -0.35221,-0.17611 -0.61637,-0.17611c-0.26416,0 -0.44027,0.08805 -0.61637,0.17611c-0.17611,0.08805 -0.35221,0.35222 -0.44027,0.52833c-0.08805,0.26416 -0.08805,0.44027 0.08805,0.70444c0.08805,0.17611 0.26416,0.35222 0.35221,0.44027c0.17611,0.08805 0.26416,0.17611 0.44027,0.26416c0.26416,0.17611 0.61637,0.17611 0.88053,0.08805c0.17611,0 0.26416,-0.08805 0.26416,-0.08805z" fill="#abe2ff"/><path d="M246.38658,198.93832c0,0 -0.17611,0.08805 -0.44027,0.26416c-0.35221,0.17611 -0.88053,0.26416 -1.49691,0.08805c-0.35221,-0.08805 -0.61637,-0.26416 -0.88053,-0.52833c-0.08805,-0.08805 -0.08805,-0.17611 -0.17611,-0.26416c0,-0.08805 -0.08805,-0.17611 -0.08805,-0.26416c-0.08805,-0.17611 -0.08805,-0.35222 -0.17611,-0.52833c-0.08805,-0.79249 0.17611,-1.67304 0.88053,-2.20137c0.26416,-0.26416 0.70443,-0.44027 1.14469,-0.44027c0.44027,0 0.88053,0.08805 1.23275,0.26416c0.35221,0.17611 0.70443,0.52833 0.79248,0.88055c0.17611,0.35222 0.26416,0.70444 0.26416,1.05666c0,0.70444 -0.35221,1.14471 -0.61637,1.40888c-0.26416,0.17611 -0.44027,0.26416 -0.44027,0.26416zM246.29853,198.93832c0,0 0,0 0.08805,-0.08805c0.08805,-0.08805 0.17611,-0.17611 0.26416,-0.26416c0.17611,-0.26416 0.35221,-0.79249 0.26416,-1.32082c0,-0.26416 -0.08805,-0.52833 -0.26416,-0.79249c-0.17611,-0.26416 -0.35221,-0.52833 -0.70443,-0.70444c-0.26416,-0.17611 -0.61637,-0.26416 -0.96859,-0.26416c-0.35221,0 -0.70443,0.08805 -1.05664,0.26416c-0.35221,0.17611 -0.61637,0.52833 -0.70443,0.88055c-0.17611,0.35222 -0.17611,0.79249 0,1.05666c0.08805,0.35222 0.26416,0.61638 0.52832,0.88055c0.17611,0.26416 0.44027,0.35222 0.70443,0.52833c0.52832,0.26416 1.05664,0.26416 1.3208,0.08805c0.17611,-0.08805 0.26416,-0.08805 0.35221,-0.17611c0.17611,-0.08805 0.17611,-0.08805 0.17611,-0.08805z" fill="#abe2ff"/></g></g></svg>