<svg version="1.1" xmlns="http://www.w3.org/2000/svg" xmlns:xlink="http://www.w3.org/1999/xlink" width="93.86831" height="73.54623" viewBox="0,0,93.86831,73.54623"><g transform="translate(-193.06585,-143.22689)"><g data-paper-data="{&quot;isPaintingLayer&quot;:true}" fill-rule="nonzero" stroke="none" stroke-width="1" stroke-linecap="butt" stroke-linejoin="miter" stroke-miterlimit="10" stroke-dasharray="" stroke-dashoffset="0" style="mix-blend-mode: normal"><g><path d="M230.45019,173.83201c0.49923,-1.55879 1.3028,-2.23197 1.75604,-3.80554c1.38726,-4.90779 0.87292,-7.02389 1.12099,-12.09912c0.33199,-6.80308 5.85443,-14.50344 12.24273,-13.47738c2.55027,0.4235 3.33121,2.55235 4.46402,4.93848c2.18719,4.60326 1.18558,8.98946 -1.84144,13.30088c-2.6924,3.84542 -4.19661,5.76191 -7.8335,8.51736c-2.48589,1.88904 -4.66247,3.23272 -7.00872,4.05616c-1.20625,0.42296 -1.713,-1.04989 -2.90012,-1.43083z" fill="#96e700"/><path d="M230.11034,172.6171c1.52677,-2.40284 2.42795,-4.5562 2.3445,-7.51131c-0.15462,-5.4884 0.37738,-8.86399 2.23318,-14.11874c0.77805,-2.20264 2.14731,-4.04535 3.8573,-5.56319c2.28172,-2.02419 5.49652,-2.92261 8.17502,-1.51273c2.90858,1.53227 5.13035,6.58441 5.13693,9.97316c0.01625,8.35274 -9.85869,18.36638 -16.99859,21.07355l-0.19376,-0.0621c-0.5806,-0.69635 5.15882,-4.05153 5.81911,-4.64932c4.22937,-3.8283 9.52905,-9.90663 9.65157,-16.03591c0.11615,-5.83442 -5.42247,-12.03776 -11.00049,-7.19912c-2.57458,2.23426 -4.68241,7.70151 -5.1615,11.06588c-0.35831,2.51194 -0.53542,5.10518 -0.39483,7.6155c0.1569,2.78975 -0.23525,6.75863 -2.38129,8.76845c-1.05472,0.1479 -1.71562,-0.85687 -1.08715,-1.84412z" fill="#272525"/><path d="M245.9437,147.46927c0.11447,0.03874 -0.41591,1.08071 -0.64948,1.51273c-0.99007,1.83446 -1.28245,3.99956 -1.34321,6.04704c2.05211,-0.28171 3.00076,-4.68074 4.60393,-3.89302c-0.66775,0.12595 -1.72986,1.45016 -2.67508,3.11147c-0.65049,1.1988 -1.31112,1.16832 -1.93167,1.26782c-0.24451,1.84198 -0.62861,3.71685 -2.28179,5.02663c1.66044,-0.25848 0.89111,2.49126 4.50416,1.28051c-0.64425,0.64029 -1.26446,0.65949 -1.90978,0.72206c-1.18088,0.1146 -1.87319,-1.19283 -2.71073,-1.76705c-1.32086,1.07997 -4.14659,3.61158 -4.79635,7.10385c-0.10185,0.54475 -0.30413,0.96073 -0.27761,1.53818c1.20995,-1.15845 2.60579,-1.53482 4.13639,-1.86306c0.54744,-0.11789 0.98631,-0.47996 1.66809,-0.63659c-1.09064,1.19101 -2.65058,1.08259 -3.98707,1.68306c-2.30932,1.03619 -3.52363,5.30498 -4.94304,4.97795c-0.26163,-0.45532 0.10366,-0.21779 0.53938,-0.85862c3.339,-3.53115 1.61532,-6.43644 4.37613,-9.7559c0.95865,-1.15295 0.46197,-3.22957 0.02101,-4.45005c-0.97765,0.18664 -2.96008,-0.4229 -3.06669,-0.84056c1.16577,0.60605 2.78626,0.28332 2.91449,0.17355c-0.713,-1.98451 -1.01827,-4.15908 -0.34576,-6.25879c0,0 -0.19168,2.90509 0.48386,4.96922c0.49158,1.50038 1.2842,4.03065 0.82948,5.60018c5.05375,-4.46308 3.56747,-4.49994 4.87208,-10.63761c-0.85224,-0.96872 -1.72355,-1.40008 -1.56913,-2.91006c0.0758,-0.73636 0.03317,-2.10428 0.03317,-2.10428c0.59631,1.52341 -0.09406,3.62373 1.68152,4.37714c0.35086,-0.80262 1.11763,-2.99626 1.82371,-3.4158z" fill="#272525"/></g><path d="M205.25972,211.3116c-1.03995,-0.713 -2.10005,2.79962 -2.69891,2.31825c-0.59886,-0.48339 0.48742,-1.88655 1.24875,-2.72913c1.27561,-1.41324 3.50456,0.02417 2.47535,2.44715c-0.65862,1.55087 -0.68681,1.77645 -1.13126,1.60861c-0.70427,-0.27123 1.14536,-2.93457 0.10608,-3.64488z" fill="#272525"/><path d="M201.75516,208.40255c-1.09098,-0.8795 -2.44379,2.50153 -3.06011,1.91207c-0.61699,-0.58812 0.64317,-1.8362 1.51931,-2.56867c1.46628,-1.22794 3.78519,0.60155 2.52234,2.89428c-0.80833,1.46896 -0.85331,1.69253 -1.32193,1.44748c-0.74455,-0.38805 1.78518,-2.52436 0.34039,-3.68516z" fill="#272525"/><path d="M196.77963,191.22282c0.22558,-1.16013 -2.88354,-0.97685 -2.6969,-1.66903c0.18664,-0.69017 1.64285,-0.17187 2.5539,0.23767c1.52536,0.68547 1.10978,3.14538 -1.12992,3.00506c-1.43405,-0.08929 -1.62136,-0.04163 -1.63143,-0.49212c-0.01611,-0.71971 2.67877,0.07788 2.90435,-1.08158z" fill="#272525"/><path d="M196.9421,187.21809c0.33971,-1.25949 -2.75934,-1.38101 -2.49415,-2.12288c0.26519,-0.74119 1.65493,-0.01477 2.51496,0.5324c1.44009,0.91642 0.74589,3.58244 -1.46762,3.1917c-1.41727,-0.25176 -1.60928,-0.21752 -1.56698,-0.71635c0.06579,-0.79289 2.56397,0.78349 3.01379,-0.88487z" fill="#272525"/><path d="M256.79555,208.47976c-0.83854,0.96745 2.68683,3.11919 2.13832,3.66435c-0.54851,0.54448 -2.12153,-1.26755 -2.77075,-2.21418c-1.08292,-1.58444 0.63243,-3.67375 2.6922,-2.17323c1.3179,0.96275 1.52267,1.02988 1.28903,1.46829c-0.37194,0.69084 -2.51026,-1.71401 -3.3488,-0.74522z" fill="#272525"/><path d="M254.15236,211.77485c-0.999,0.99296 1.8879,2.99969 1.23734,3.54484c-0.65123,0.54515 -1.58444,-0.9943 -2.11079,-2.04097c-0.88084,-1.75161 1.21317,-3.86911 3.11181,-2.14436c1.21653,1.10306 1.8174,1.58041 1.51059,2.0309c-0.48876,0.71501 -2.42365,-2.70496 -3.74894,-1.39041z" fill="#272525"/><path d="M265.52405,198.4112c-0.58074,0.92716 2.63715,2.22963 2.24507,2.76404c-0.39208,0.53307 -1.93288,-0.76134 -2.59217,-1.46158c-1.10508,-1.17289 0.07049,-3.16485 1.97987,-2.19807c1.22324,0.61766 1.40384,0.64653 1.26151,1.04533c-0.22357,0.63109 -2.31288,-1.07889 -2.89428,-0.14972z" fill="#272525"/><path d="M263.72276,201.54247c-0.713,0.97215 1.95168,2.24507 1.47433,2.79223c-0.47735,0.54717 -1.45016,-0.60759 -2.01949,-1.41055c-0.95536,-1.34274 0.53374,-3.40923 2.33637,-2.23567c1.15476,0.75261 1.71938,1.06748 1.51663,1.48776c-0.3189,0.66667 -2.36323,-1.92147 -3.30785,-0.63377z" fill="#272525"/><path d="M274.72319,176.71582c-0.43706,-1.35483 -0.12152,-2.69959 0.70763,-3.00305c0.82713,-0.30346 1.85299,0.54784 2.29072,1.90267c0.43706,1.35483 0.12219,2.69959 -0.70695,3.00305c-0.82847,0.30346 -1.85433,-0.54784 -2.29139,-1.90267z" fill="#272525"/><path d="M280.05656,175.04209c0.07586,-1.15812 0.71165,-2.05305 1.41861,-2.00069c0.70763,0.05304 1.21787,1.03391 1.14335,2.19203c-0.07586,1.15744 -0.71233,2.05305 -1.41861,2.00002c-0.70763,-0.05304 -1.21988,-1.03458 -1.14335,-2.19136z" fill="#272525"/><path d="M259.15274,161.74894c1.80733,0.51091 2.69086,2.51563 3.65092,4.24508c0.99363,-2.12221 1.95436,-4.83455 4.16653,-4.55928c2.43439,0.27526 3.20983,3.06615 3.39445,5.66033c4.8285,-2.55524 10.47004,-2.51563 13.42139,2.20076c2.02956,3.26219 3.02386,6.44584 1.99263,10.21895c-1.475,5.42401 -7.33809,6.83993 -12.57479,5.9356c-1.18027,-0.19671 -1.95436,-1.61062 -3.13396,-1.84761c-2.6922,-0.58946 -4.94331,0.19671 -7.22799,-1.41458c-0.51628,3.38103 4.05576,3.96982 7.22799,3.96982c0,2.90838 -1.62338,5.30585 -4.13028,6.4069c-1.12589,0.48406 -3.15142,-0.23632 -4.20346,0.27526c-0.58812,0.98222 -1.18027,2.29743 -1.10575,3.65428c2.80231,0 6.56534,-2.75128 7.22799,0.1571c0.66332,2.90838 -0.29607,5.58178 -1.99196,7.9007c-1.14402,1.57235 -3.68784,1.72945 -5.49451,1.17893c-2.13832,-0.66801 -2.83856,-3.10442 -5.05207,-3.4193c-1.65963,-0.23498 -2.54383,1.29709 -3.39244,2.82983c2.83856,0.90434 5.71606,-0.43169 7.41194,2.08327c1.6979,2.47803 0.47936,5.23133 -2.17457,6.44785c-3.35686,1.53274 -5.71539,4.24307 -7.96582,1.1796c-1.34811,-1.855 -2.11482,-3.66972 -3.7617,-4.83388c-0.51561,-0.36523 -3.044,-2.59082 -3.65092,-2.24104c-2.72778,1.57034 -7.88996,3.77311 -13.75305,2.86877c-2.9876,-0.47265 -4.49953,-1.7308 -7.52272,-1.8879c-1.59316,-0.08929 -2.8117,0.68816 -4.13028,0.7083c-1.51931,0.02484 -3.11114,-0.76604 -4.57204,-1.96578c-1.65963,-1.37564 -2.36054,-0.58879 -3.31926,1.37698c-0.95872,2.00472 -0.22155,4.52035 -1.58578,6.2498c-1.14335,1.45486 -2.35987,-0.51091 -3.94565,-1.33603c-2.76538,-1.45419 -6.34245,-4.28469 -5.90001,-7.54622c0.51696,-3.77244 7.00643,-5.18702 6.60093,-9.00041c-0.22357,-2.06245 -1.76839,-4.39413 -3.7617,-4.71571c-0.96745,-0.15509 -2.20613,1.1561 -3.13396,1.29776c-2.54383,0.39342 -3.06078,-3.73417 -2.6546,-6.44651c0.51561,-3.45958 1.73281,-6.28874 4.79359,-7.58583c3.28166,-1.37564 4.64656,1.57235 7.44887,3.81272l3.24474,-4.71639c-1.09299,-1.32394 -0.93791,-3.43944 -1.40115,-4.87416c-0.56932,-1.76101 -2.09669,-2.44446 -3.94565,-3.4193c1.95369,-1.21854 4.31356,-1.3367 6.08397,0.11816c1.20041,0.99027 1.7308,3.01849 2.83923,3.77311c0.69554,0.47399 1.89797,0.14032 2.76538,-0.3142c4.46261,-2.35853 7.6335,-3.34075 12.53786,-2.35853c5.16218,1.02183 8.92387,3.69456 14.08605,2.82983c5.19843,-0.86406 10.3982,-6.28807 9.36563,-8.8037c1.10575,-2.82983 4.42501,-4.9131 7.22597,-4.09335z" fill="#babaff"/><path d="M270.91785,165.64558c-0.0188,0.35448 -0.77006,0.69756 -0.83653,0.1571c-0.45116,-3.65495 -5.24811,-4.99165 -7.01852,0.35381c-0.12957,0.39275 -0.66869,-0.23028 -0.51494,-0.62908c3.28099,-8.44988 8.53112,-2.82983 8.36999,0.11816z" fill="#272525"/><path d="M262.28871,164.42771c0.22155,0.54515 -0.25848,1.09434 -0.59014,0.62908c-2.21217,-3.10509 -5.27832,-3.16082 -6.33641,-2.31153c-1.3555,1.08829 -2.66132,5.45557 -0.00604,8.04975c0.25042,0.24572 0.49279,1.67843 -0.79759,0.84324c-3.663,-2.36994 -4.05106,-9.05815 0.30077,-10.893c3.85233,-1.62405 6.44852,1.26822 7.4294,3.68247z" fill="#272525"/><path d="M263.13666,167.03062c2.21888,4.81105 -3.92685,8.28271 -6.03093,3.67845c-2.42768,-5.30786 4.19607,-7.65431 6.03093,-3.67845z" fill="#272525"/><path d="M269.67044,184.17342c-2.14906,0.47869 -4.41225,-0.0376 -6.19743,-1.39242c-0.01947,0.91172 0.8842,1.99397 1.60861,2.3921c1.61868,0.89494 5.60864,-0.2041 6.19743,1.46426c1.27628,3.60459 -6.42033,8.16388 -9.34818,6.85806c-0.53307,-0.23767 -0.88621,-1.1326 -0.41491,-1.08091c4.09268,0.43371 7.74964,-2.0544 8.15448,-4.66805c0.08392,-0.54515 -0.04498,-0.99296 -0.57134,-1.17826c-2.19069,-0.77543 -5.52002,0.68211 -6.66873,-2.82177c-0.31622,-0.96476 -0.47063,-2.11818 -0.16784,-3.10711c1.75698,2.3028 4.68349,2.14503 6.90237,1.8221c1.66567,-0.24304 3.62876,2.23298 5.49652,2.57068c3.16015,0.57335 5.81542,0.00873 8.04236,-2.57068c5.66973,-6.57407 0.7949,-17.27036 -7.97522,-15.60738c-1.1561,0.21887 -2.30348,0.49816 -3.45219,0.74992c-0.29339,-0.41088 -0.11749,-0.94596 0.06915,-1.35684c3.44481,-1.95033 9.07426,-1.19773 12.06119,1.46426c5.83489,5.1991 4.2424,16.3338 -3.38304,18.50032c-3.58311,1.01444 -7.43611,0.57604 -10.35322,-2.03828z" fill="#272525"/><path d="M269.26762,165.81611c3.1541,3.59184 -0.60692,7.51936 -3.21654,5.32129c-1.57302,-1.32462 -1.40384,-5.62945 0.97147,-5.92888c0.7271,-0.09064 1.7167,0.00671 2.24507,0.60759z" fill="#272525"/><path d="M262.26522,168.03096c0.60155,1.96242 -0.08661,3.55021 -1.82009,3.58915c-1.21048,0.04968 -2.45252,-1.3978 -2.03291,-3.41124c0.24841,-1.19437 1.1561,-1.72811 2.03963,-1.66634c0.77342,0.05438 1.53006,0.56529 1.81337,1.48843z" fill="#ffffff"/><path d="M261.29374,169.22265c0.30547,0 0.58208,0.13226 0.78215,0.34576c0.20007,0.2135 0.32427,0.50823 0.32427,0.83317c0,0.32494 -0.1242,0.61968 -0.32427,0.83317c-0.20007,0.2135 -0.47667,0.34576 -0.78215,0.34576c-0.30547,0 -0.58208,-0.13226 -0.78215,-0.34576c-0.20007,-0.2135 -0.32427,-0.50823 -0.32427,-0.83317c0,-0.32494 0.1242,-0.61968 0.32427,-0.83317c0.20007,-0.2135 0.47667,-0.34576 0.78215,-0.34576z" fill="#272525"/><path d="M268.23975,170.39083c-0.45183,0.18463 -0.90837,0.10003 -1.19974,-0.08795c-1.02116,-0.65794 -1.49447,-3.09099 -0.0141,-3.68382c2.09736,-0.8419 3.42332,2.8681 1.21384,3.77177z" fill="#ffffff"/><path d="M268.27131,168.61237c0.25176,0 0.48003,0.10876 0.64519,0.28533c0.16583,0.1759 0.26788,0.41961 0.26788,0.68816c0,0.26855 -0.10205,0.51226 -0.26788,0.68816c-0.16516,0.17657 -0.39342,0.28533 -0.64519,0.28533c-0.25176,0 -0.48003,-0.10876 -0.64519,-0.28533c-0.16583,-0.1759 -0.26788,-0.41961 -0.26788,-0.68816c0,-0.26855 0.10205,-0.51226 0.26788,-0.68816c0.16516,-0.17657 0.39342,-0.28533 0.64519,-0.28533z" fill="#272525"/><path d="M251.40779,169.2448c-1.88588,2.45789 -2.66467,3.72746 -5.56097,5.14271c-4.39211,2.1457 -8.36059,0.82713 -13.73761,-1.46426c-9.50662,-4.0524 -16.5191,4.33102 -19.36706,2.3216c-1.38638,-0.97819 -1.60055,-3.42064 -3.38438,-4.46395c-1.25211,-0.73247 -3.11785,-0.91239 -4.35586,-0.07117c0.83854,0.34509 1.74489,0.51427 2.51294,1.03526c3.51262,2.38337 -0.45586,5.17628 3.35082,6.85739c-4.0007,4.10208 -4.90168,9.28775 -4.15445,14.39286c-0.55052,0.11413 -1.06815,0.34441 -1.60861,0.4995c-2.43976,-4.82918 0.4619,-10.58887 3.853,-13.89202c-0.50689,-0.82713 -1.44479,-1.51999 -1.54147,-2.57202c-0.1195,-1.30313 0.74522,-1.8926 -0.16784,-3.14269c-1.04734,-1.43405 -2.48676,-2.38136 -4.15512,-2.75061c1.74489,-1.8362 4.74928,-2.76941 6.7352,-1.8926c2.39814,1.05875 2.09938,3.17089 3.55156,4.64321c1.02384,1.0366 2.80835,-0.34911 3.68583,-0.96476c2.39277,-1.6791 4.96412,-3.21923 7.87452,-3.49986c6.54252,-0.63176 11.17834,3.81071 17.28916,4.46462c4.36257,0.4666 5.80804,-6.08598 9.18034,-5.42871z" fill="#272525"/><path d="M283.05894,173.15218c-0.19336,-0.78483 -0.41491,-1.76772 -1.3743,-1.92549c-0.81505,-0.1336 -1.65963,0.78618 -1.97652,1.49649c-0.21148,-3.49248 4.20346,-3.38506 3.35082,0.42901z" fill="#272525"/><path d="M272.88699,175.85177c-3.43809,-4.30148 2.01949,-7.69593 4.72444,-3.60728c0.12689,0.19336 0.66063,0.91575 0.42364,0.67204c-1.14469,-1.1749 -3.14739,-1.3978 -3.87449,-1.02988c-1.13328,0.57335 -1.73147,1.62002 -1.27359,3.96512z" fill="#272525"/><path d="M204.66757,194.90932v0.50017c-0.83317,0.58074 -1.12455,2.14705 -2.24507,0.96409c-0.72777,-0.76872 -1.98189,-2.87078 -2.9151,-3.17693c-1.41257,-0.4619 -2.18061,2.41022 -4.25515,1.28568c-4.63515,-2.51227 -1.1326,-13.33075 3.38438,-15.67921c1.34341,-0.69823 2.60425,-0.39074 3.853,0.50084c1.01176,0.72105 2.92449,1.92482 3.72007,2.8211c0.22558,0.25512 0.31622,0.77141 0.23431,1.10642c-0.65056,2.65326 -5.17225,-4.35317 -8.44384,-1.96376c-3.04131,2.22023 -5.48846,10.55396 -1.44076,11.32c1.5549,0.29406 2.84259,-2.14906 4.49013,-0.7855c1.26151,1.04667 2.13563,2.29542 3.61802,3.10711z" fill="#272525"/><path d="M213.54646,194.0305c1.8362,1.79659 -2.18666,2.30616 -3.21721,1.96376c-1.40787,-0.46727 -3.47569,-1.61465 -4.82515,-0.24975c-1.16282,1.17691 -0.79692,3.99668 -2.01009,5.57171c-1.94496,2.52503 -7.29915,2.97082 -5.09302,7.42738c0.7036,1.42129 4.43978,4.57338 5.88256,5.04939c0.86741,0.28802 2.6358,-0.04901 3.04937,-1.03593c0.65727,-1.56832 -1.13328,-4.87684 1.91542,-5.81206c0.3095,0.27929 0.76066,0.51763 0.87077,0.96476c-2.11079,2.18061 0.65727,6.20415 -2.64722,7.7859c-4.15982,1.99062 -12.93397,-6.58683 -10.91382,-10.80774c1.03727,-2.16786 4.60158,-3.1447 5.86376,-6.00072c1.0648,-2.40955 1.01646,-4.40285 3.7194,-5.28571c2.51697,-0.82444 2.93926,-0.27392 5.29444,0.42968c0.69621,0.20678 1.40585,-0.06042 2.11079,-0.00067z" fill="#272525"/><path d="M207.34769,203.03091l0.40215,-0.10742c8.70702,13.13606 18.90314,1.90938 13.5033,-8.5714c0.07251,-0.34576 0.35851,-0.59215 0.63646,-0.74925c1.46225,0.3518 1.72744,2.00539 2.01076,3.3206c0.95536,4.43642 -0.0094,8.94536 -3.21654,12.10684c-4.64656,4.57943 -11.9672,-0.50957 -13.33613,-5.99938z" fill="#272525"/><path d="M253.75424,203.88758c-0.20208,-0.17657 -0.78819,-0.48742 -0.56932,-0.85667c0.13293,-0.22692 3.71873,-2.77075 4.72377,-4.28604c1.03257,-1.55691 2.16786,-3.34075 2.9151,-5.07154c0.28533,-0.08661 0.63243,0.11078 0.70494,0.42901c0.56462,2.53443 -5.30249,10.17531 -7.77448,9.78524z" fill="#272525"/><path d="M255.6569,202.93758c0.10003,-0.34039 0.35918,-0.57335 0.63646,-0.74992c2.50153,0.39745 2.73315,3.96176 5.96447,3.25078c3.11986,-0.68748 7.42671,-6.52238 3.85233,-8.50091c-1.61398,-0.89158 -4.40554,0.90232 -6.53245,-0.14166c0.18597,-0.47735 0.47735,-1.02586 0.73784,-1.4656c0.77006,-1.30649 1.52468,0.17657 2.34577,0.25042c1.87313,0.16851 3.71268,-0.90568 5.46161,0.60625c1.15006,0.99497 1.2897,3.04668 0.97147,4.46462c-0.75194,3.35552 -3.06145,5.94567 -6.19877,6.7493c-2.61365,0.66869 -3.93625,-2.01143 -6.19676,-3.17827c-0.40752,-0.2088 -0.90098,-0.8325 -1.04197,-1.28501z" fill="#272525"/><path d="M260.02082,207.3156c0.86674,1.29306 0.62908,3.04198 0.06714,4.42837c-1.43875,3.55021 -5.43945,5.28034 -8.84599,4.9997c-3.76371,-0.3095 -3.53746,-4.80702 -5.9309,-6.00072c-2.74725,-1.36691 -5.89599,-3.12121 -5.89599,-6.96414c0,-1.3226 1.63278,-2.87213 2.11214,-1.78383c0.60625,1.38034 -0.57335,4.54384 2.8822,6.7493c2.28736,1.46359 2.90838,1.19303 4.01883,3.96378c0.59282,1.47702 3.11919,2.52033 4.5237,2.21485c1.99196,-0.43371 7.22933,-3.1682 6.56534,-5.89196c-1.00706,-4.14438 -6.55594,-2.36121 -9.31394,-4.46395c-1.55423,-1.18631 -3.03594,-3.0252 -2.81372,-5.25013c0.06445,-0.6425 1.12723,-1.82546 1.67507,-1.35684c0.23901,0.20678 0.09399,2.06245 0.50286,2.75061c1.26352,2.12556 2.97753,4.49282 5.62945,4.28738c3.07287,-0.24371 4.34243,1.60189 4.8238,2.31757z" fill="#272525"/><path d="M219.54987,209.39215c0.08526,-0.70293 0.74187,-1.04868 1.13932,-1.5361c0.31152,-0.03223 5.7315,1.57772 7.7342,1.74557c4.03293,0.34106 7.51533,0.53777 10.99035,-1.78451c0.66332,-0.03558 1.74221,0.70024 1.07218,1.46493c-1.24137,1.41257 -7.24947,2.47065 -9.11387,2.57135c-3.29509,0.17657 -8.88963,-0.76402 -11.82218,-2.46125z" fill="#272525"/><path d="M233.99631,178.01426c-2.82701,-0.47755 -5.56285,-1.5794 -8.75596,-3.23944c-4.6702,-2.4205 -6.75292,-4.30463 -10.56376,-8.1477c-4.2804,-4.30712 -6.27544,-9.09521 -4.6898,-14.75212c0.82176,-2.93208 1.29179,-5.50317 4.10792,-6.48243c7.05826,-2.41365 14.83678,5.25677 16.54219,12.92162c1.27379,5.71861 0.89729,8.95026 3.43292,14.25463c0.82209,1.69891 1.80854,2.51442 2.67998,4.18761c-1.27453,0.66459 -1.30085,1.5034 -2.7535,1.25781z" fill="#96e700"/><path d="M236.28589,176.68393c-2.83104,-1.86453 -4.05112,-6.297 -4.41756,-9.49742c-0.33025,-2.87938 -1.03875,-5.79186 -1.9355,-8.57597c-1.20129,-3.72927 -4.66375,-9.52972 -8.02645,-11.56464c-7.28217,-4.40816 -12.36398,3.72148 -11.09233,10.32838c1.33576,6.93916 8.54461,12.81098 14.09934,16.33393c0.86708,0.54992 8.04283,3.24219 7.51849,4.14666l-0.20846,0.10849c-8.64183,-1.68185 -21.81682,-11.13107 -23.42993,-20.6244c-0.65472,-3.85119 0.88306,-10.02593 3.88946,-12.33444c2.768,-2.12523 6.59629,-1.73241 9.58417,0.12226c2.23976,1.39054 4.15398,3.21701 5.46906,5.56755c3.1341,5.60736 4.39876,9.33911 5.2943,15.60456c0.48251,3.37384 1.45392,7.38401 4.67268,10.0511c1.03244,0.85586 -0.19033,0.29594 -1.41727,0.33394z" fill="#272525"/><path d="M219.24292,151.91576c1.96933,-1.03364 0.97671,-3.3817 1.51743,-5.18755c0,0 0.08056,1.57591 0.23686,2.41425c0.31998,1.72099 -0.64049,2.29904 -1.52952,3.49261c2.08065,6.92849 0.37429,7.11164 6.60361,11.76176c-0.66929,-1.76107 0.00269,-4.7429 0.42498,-6.51358c0.58107,-2.43574 0.0862,-5.75533 0.0862,-5.75533c0.97094,2.34832 0.82606,4.8761 0.1947,7.22362c0.15703,0.11454 2.04936,0.33179 3.33141,-0.47506c-0.08298,0.48983 -2.30374,1.37752 -3.44434,1.25627c-0.39101,1.44392 -0.76476,3.8767 0.44505,5.11068c3.4859,3.55337 1.7784,7.05484 5.94983,10.79559c0.56147,0.69554 1.64452,1.08178 1.38665,1.63009c-1.60008,0.51044 -4.08442,-4.97466 -6.83396,-5.94755c-1.5929,-0.56342 -3.37492,-0.29084 -4.74102,-1.55678c0.79873,0.11507 1.33556,0.49104 1.97779,0.57349c1.79028,0.23256 3.42943,0.53347 4.92975,1.74973c-0.02598,-0.6656 -0.29836,-1.12401 -0.4658,-1.73986c-1.07695,-3.95075 -4.56291,-6.59233 -6.18206,-7.70936c-0.9091,0.73911 -1.58108,2.3065 -2.9484,2.28696c-0.74757,-0.01054 -1.46245,0.02638 -2.26259,-0.64901c4.2669,1.04956 3.12289,-2.03728 5.05341,-1.89609c-2.02392,-1.34926 -2.64232,-3.46703 -3.09663,-5.56037c-0.7224,-0.05512 -1.42982,-0.38161 -1.99397,-0.87627c-1.22881,0.81102 -0.85278,3.47066 -2.7351,3.29502c0.46452,-0.40343 0.81518,-0.65009 1.06473,-1.01995c0.56818,-0.8415 0.46331,-1.85957 1.32415,-2.6732c-1.24338,-1.81942 -2.58874,-3.24064 -3.36787,-3.32242c1.76745,-1.05627 3.27287,3.90805 5.65765,4.03723c-0.26338,-2.34665 -0.80457,-4.80655 -2.11529,-6.82046c-0.30876,-0.47459 -1.0182,-1.62116 -0.88997,-1.67635c0.85526,0.41504 1.94335,2.86239 2.42231,3.75189z" fill="#272525"/><path d="M240.25678,177.93262c-1.59974,-0.65761 -2.92369,-0.83337 -4.59574,-0.11642c-1.51448,0.64861 -2.32362,1.67232 -3.15538,4.15566c-0.12984,0.38758 -1.1224,0.22149 -1.03425,-0.39054c0.12816,-1.73247 0.58423,-3.11463 1.87434,-4.44045c1.97142,-2.02546 5.87558,-1.23083 6.91103,0.79175z" fill="#272525"/></g></g></svg>