<svg version="1.1" xmlns="http://www.w3.org/2000/svg" xmlns:xlink="http://www.w3.org/1999/xlink" width="24.70181" height="34.50557" viewBox="0,0,24.70181,34.50557"><g transform="translate(-227.6491,-162.74721)"><g data-paper-data="{&quot;isPaintingLayer&quot;:true}" fill-rule="nonzero" stroke="none" stroke-width="1" stroke-linecap="butt" stroke-linejoin="miter" stroke-miterlimit="10" stroke-dasharray="" stroke-dashoffset="0" style="mix-blend-mode: normal"><path d="M232.54572,169.01422c0,0 -3.3161,-1.95977 -0.55268,-4.63219c2.76341,-2.67242 21.83097,-2.7615 14.83032,5.0776c0,0 5.3426,14.43106 5.52683,22.27016c0.09211,4.45403 -8.6587,5.70116 -15.29089,5.34484c-8.10601,-0.4454 -9.57983,-2.67242 -9.39561,-5.523c0.18423,-2.85058 2.94764,-20.66671 4.88203,-22.5374z" fill="#cae8de"/><path d="M230.15076,193.15508c-1.75016,-1.87069 0.92114,-18.35061 3.77667,-21.73568c2.39496,-2.85058 9.67195,-1.95977 11.51422,0.17816c1.47382,1.69253 5.9874,16.03452 4.6978,20.66671c-1.01325,3.83047 -16.85682,4.27587 -19.98869,0.89081z" fill="#c2e33d"/><path d="M245.34953,171.59756c0,1.87069 -12.34325,0.97989 -11.42211,-0.17816c2.6713,-3.2069 11.42211,-1.24713 11.42211,0.17816z" fill="#dcf25f"/><path d="M250.23156,192.35335c-1.10537,3.74139 -16.85682,4.18679 -19.98869,0.89081l-0.09211,-0.08908c-0.27634,-0.4454 -0.36846,-1.78161 9.11926,-2.40518c11.05365,-0.71265 10.86943,1.60345 10.96154,1.60345z" fill="#8fcc3d"/><path d="M246.4549,165.36192c0,0.89081 -2.6713,1.78161 -6.81642,1.78161c-4.14512,0 -7.09276,-0.35632 -7.09276,-1.24713c0,-0.89081 3.03975,-2.04885 7.09276,-2.04885c4.05301,0 6.81642,0.62356 6.81642,1.51437z" fill="#b6cfd1"/><path d="M246.4549,165.36192c0,0 0,0.08908 0,0.17816c0,0.08908 -0.09211,0.26724 -0.27634,0.35632c-0.18423,0.08908 -0.36846,0.26724 -0.6448,0.35632c-0.27634,0.08908 -0.55268,0.17816 -0.92114,0.26724c-0.6448,0.17816 -1.47382,0.26724 -2.30284,0.35632c-0.92114,0.08908 -1.84228,0.17816 -2.76341,0.17816c-0.92114,0 -1.84228,0 -2.6713,-0.08908c-0.82902,0 -1.65805,-0.17816 -2.39496,-0.26724c-0.6448,-0.08908 -1.28959,-0.26724 -1.65805,-0.4454c-0.18423,-0.08908 -0.27634,-0.17816 -0.36846,-0.26724c-0.09211,-0.08908 0,-0.17816 0,-0.17816c0,0 0,0.08908 0,0.17816c0.09211,0.08908 0.18423,0.17816 0.36846,0.26724c0.36846,0.17816 0.92114,0.26724 1.56593,0.26724c0.6448,0.08908 1.47382,0.08908 2.30284,0.08908c0.82902,0 1.75016,0 2.6713,0c0.92114,0 1.84228,0 2.6713,-0.08908c0.82902,-0.08908 1.65805,-0.08908 2.30284,-0.26724c0.6448,-0.08908 1.19748,-0.26724 1.56593,-0.4454c0.18423,-0.08908 0.27634,-0.17816 0.27634,-0.26724c0.27634,-0.08908 0.27634,-0.17816 0.27634,-0.17816z" fill="#96b7c4"/><path d="M232.54572,169.01422c0,0 0.36846,0.08908 0.82902,0.26724c0.46057,0.08908 1.19748,0.26724 1.84228,0.35632c0.36846,0.08908 0.6448,0.08908 1.01325,0.17816c0.27634,0.08908 0.6448,0.08908 0.82902,0.17816c0.55268,0.08908 0.82902,0.17816 0.82902,0.17816c0,0 -0.36846,0.08908 -0.82902,0.08908c-0.55268,0 -1.19748,0 -1.93439,-0.08908c-0.73691,-0.08908 -1.38171,-0.35632 -1.84228,-0.62356c-0.46057,-0.26724 -0.73691,-0.53448 -0.73691,-0.53448z" fill="#96b7c4"/><path d="M248.38929,166.3418c0,0 0,0.08908 0,0.35632c0,0.17816 -0.09211,0.53448 -0.27634,0.89081c-0.18423,0.35632 -0.36846,0.80173 -0.73691,1.15805c-0.18423,0.17816 -0.36846,0.35632 -0.55268,0.53448c-0.18423,0.17816 -0.46057,0.35632 -0.6448,0.4454c-0.27634,0.17816 -0.46057,0.26724 -0.73691,0.35632c-0.27634,0.08908 -0.55268,0.17816 -0.73691,0.17816c-0.27634,0 -0.46057,0.08908 -0.73691,0.08908c-0.27634,0 -0.46057,0 -0.6448,0c-0.36846,0 -0.73691,-0.08908 -0.92114,-0.08908c-0.18423,0 -0.36846,-0.08908 -0.36846,-0.08908c0,0 0.09211,0 0.36846,0c0.27634,0 0.55268,0 0.92114,-0.08908c0.18423,0 0.36846,0 0.6448,-0.08908c0.18423,-0.08908 0.46057,-0.08908 0.6448,-0.17816c0.18423,-0.08908 0.46057,-0.17816 0.73691,-0.26724c0.18423,-0.08908 0.46057,-0.17816 0.6448,-0.35632c0.18423,-0.17816 0.46057,-0.26724 0.6448,-0.4454c0.18423,-0.17816 0.36846,-0.35632 0.55268,-0.4454c0.27634,-0.35632 0.55268,-0.71265 0.73691,-1.06897c0.36846,-0.4454 0.46057,-0.89081 0.46057,-0.89081z" fill="#96b7c4"/><path d="M232.08515,165.598c0,0 -0.09211,0.08908 -0.09211,0.35632c0,0.08908 0,0.26724 0.09211,0.35632c0.09211,0.08908 0.27634,0.26724 0.36846,0.35632c0.18423,0.08908 0.36846,0.17816 0.6448,0.26724c0.18423,0.08908 0.46057,0.08908 0.73691,0.17816c0.55268,0.08908 1.10537,0.17816 1.65805,0.26724c0.27634,0.08908 0.55268,0.08908 0.82902,0.08908c0.27634,0 0.55268,0.08908 0.82902,0.08908c0.55268,0 1.01325,0.08908 1.47382,0.08908c0.82902,0.08908 1.47382,0.08908 1.47382,0.08908c0,0 -0.55268,0.08908 -1.47382,0.17816c-0.46057,0 -0.92114,0 -1.47382,0c-0.27634,0 -0.55268,0 -0.82902,0c-0.27634,0 -0.55268,0 -0.92114,-0.08908c-0.55268,-0.08908 -1.19748,-0.17816 -1.75016,-0.35632c-0.27634,-0.08908 -0.55268,-0.17816 -0.73691,-0.26724c-0.27634,-0.08908 -0.46057,-0.26724 -0.6448,-0.35632c-0.18423,-0.17816 -0.27634,-0.35632 -0.36846,-0.4454c-0.09211,-0.17816 -0.09211,-0.35632 -0.09211,-0.4454c0.18423,-0.26724 0.27634,-0.35632 0.27634,-0.35632z" fill="#ffffff"/><path d="M244.24417,187.36483c0,0 0.09211,0 0.27634,0c0.18423,0 0.46057,0.08908 0.6448,0.26724c0.09211,0.08908 0.18423,0.26724 0.18423,0.4454v0.17816v0.08908c0,0.08908 -0.09211,0.17816 -0.09211,0.26724c-0.18423,0.35632 -0.55268,0.53448 -0.92114,0.62356c-0.18423,0 -0.46057,0 -0.6448,-0.08908c-0.18423,-0.08908 -0.36846,-0.26724 -0.46057,-0.4454c-0.09211,-0.17816 -0.18423,-0.35632 -0.09211,-0.53448c0,-0.17816 0.09211,-0.35632 0.18423,-0.4454c0.18423,-0.26724 0.46057,-0.26724 0.6448,-0.35632c0.18423,0 0.27634,0 0.27634,0zM244.24417,187.36483c0,0 -0.09211,0 -0.18423,0.08908c-0.09211,0.08908 -0.27634,0.26724 -0.36846,0.4454c0,0.08908 -0.09211,0.17816 -0.09211,0.26724c0,0.08908 0,0.26724 0.09211,0.35632c0,0.08908 0.09211,0.17816 0.27634,0.26724c0.09211,0.08908 0.27634,0.17816 0.36846,0.17816c0.18423,0 0.36846,0 0.46057,-0.08908c0.09211,-0.08908 0.18423,-0.26724 0.27634,-0.35632c0,-0.08908 0,-0.26724 0,-0.35632c0,-0.08908 -0.09211,-0.17816 -0.09211,-0.26724c-0.09211,-0.17816 -0.27634,-0.35632 -0.36846,-0.4454c-0.27634,-0.08908 -0.46057,-0.08908 -0.36846,-0.08908z" fill="#d9ffb3"/><path d="M246.63913,185.40506c0,0 0,0.17816 -0.18423,0.4454c-0.09211,0.08908 -0.09211,0.08908 -0.18423,0.08908c-0.09211,0 -0.18423,0 -0.27634,0c-0.27634,-0.08908 -0.46057,-0.26724 -0.46057,-0.53448c0,-0.08908 0,-0.26724 0.09211,-0.35632c0.09211,-0.08908 0.18423,-0.17816 0.27634,-0.17816c0.18423,-0.08908 0.46057,0 0.55268,0.17816c0.27634,0.17816 0.18423,0.35632 0.18423,0.35632zM246.63913,185.40506v0c0,-0.17816 -0.09211,-0.26724 -0.18423,-0.26724c-0.09211,0 -0.27634,0 -0.36846,0.08908l-0.09211,0.08908c0,0.08908 0,0.08908 0,0.17816c0,0.08908 0,0.17816 0.09211,0.26724c0,0 0.09211,0.08908 0.18423,0.08908c0.09211,0 0.09211,0 0.18423,0c0.27634,-0.17816 0.18423,-0.4454 0.18423,-0.4454z" fill="#d9ffb3"/><path d="M236.78295,190.92806c0,0 0,0.17816 -0.09211,0.53448c-0.09211,0.35632 -0.27634,0.89081 -0.82902,1.33621c-0.27634,0.17816 -0.6448,0.35632 -1.01325,0.35632c-0.09211,0 -0.18423,0 -0.27634,0c-0.09211,0 -0.18423,0 -0.27634,0c-0.18423,0 -0.36846,-0.08908 -0.55268,-0.17816c-0.73691,-0.35632 -1.28959,-1.15805 -1.38171,-1.95977c0,-0.4454 0.09211,-0.89081 0.27634,-1.24713c0.27634,-0.35632 0.55268,-0.62356 1.01325,-0.89081c0.36846,-0.17816 0.82902,-0.26724 1.19748,-0.17816c0.46057,0.08908 0.73691,0.17816 1.01325,0.4454c0.55268,0.4454 0.73691,0.97989 0.82902,1.33621c0.09211,0.17816 0.09211,0.4454 0.09211,0.4454zM236.78295,190.92806c0,0 0,-0.08908 0,-0.17816c0,-0.08908 0,-0.26724 -0.09211,-0.35632c-0.09211,-0.35632 -0.46057,-0.80173 -0.92114,-0.97989c-0.27634,-0.08908 -0.55268,-0.26724 -0.82902,-0.26724c-0.36846,0 -0.6448,0 -1.01325,0.17816c-0.6448,0.26724 -1.19748,0.89081 -1.19748,1.69253c0,0.35632 0.09211,0.80173 0.27634,1.06897c0.18423,0.35632 0.55268,0.53448 0.92114,0.71265c0.36846,0.08908 0.73691,0.08908 1.01325,0.08908c0.36846,-0.08908 0.6448,-0.17816 0.82902,-0.26724c0.55268,-0.26724 0.82902,-0.71265 0.92114,-1.06897c0.09211,-0.17816 0.09211,-0.26724 0.09211,-0.35632c0,-0.26724 0,-0.26724 0,-0.26724z" fill="#d9ffb3"/><path d="M236.69084,180.95103c0,0 -0.09211,0.08908 -0.27634,0.08908c-0.18423,0.08908 -0.46057,0.17816 -0.82902,0.08908c-0.18423,-0.08908 -0.36846,-0.17816 -0.46057,-0.35632c0,-0.08908 -0.09211,-0.08908 -0.09211,-0.17816c0,0 0,-0.08908 0,-0.17816c0,-0.08908 0,-0.17816 0,-0.35632c0,-0.4454 0.18423,-0.80173 0.55268,-1.15805c0.18423,-0.17816 0.46057,-0.26724 0.6448,-0.26724c0.27634,0 0.46057,0.08908 0.6448,0.17816c0.18423,0.08908 0.36846,0.35632 0.46057,0.53448c0.09211,0.17816 0.09211,0.4454 0.09211,0.62356c-0.09211,0.35632 -0.27634,0.53448 -0.46057,0.71265c-0.18423,0.17816 -0.27634,0.26724 -0.27634,0.26724zM236.69084,180.86195c0,0 0.09211,0 0.18423,-0.17816c0.09211,-0.08908 0.18423,-0.35632 0.18423,-0.62356c0,-0.08908 -0.09211,-0.26724 -0.09211,-0.35632c-0.09211,-0.17816 -0.18423,-0.26724 -0.27634,-0.35632c-0.09211,-0.08908 -0.27634,-0.17816 -0.46057,-0.17816c-0.18423,0 -0.36846,0 -0.55268,0.08908c-0.18423,0.08908 -0.36846,0.17816 -0.46057,0.35632c-0.09211,0.17816 -0.09211,0.35632 0,0.53448c0,0.17816 0.18423,0.26724 0.27634,0.35632c0.09211,0.08908 0.18423,0.17816 0.27634,0.26724c0.18423,0.17816 0.46057,0.17816 0.6448,0.17816c0.18423,0 0.27634,-0.08908 0.27634,-0.08908z" fill="#d9ffb3"/><path d="M235.1249,177.47688c0,0 0,0.26724 -0.27634,0.53448c-0.09211,0.08908 -0.18423,0.08908 -0.27634,0.17816c-0.09211,0 -0.27634,0 -0.36846,0c-0.27634,-0.08908 -0.55268,-0.35632 -0.55268,-0.71265c0,-0.08908 0.09211,-0.35632 0.18423,-0.4454c0.09211,-0.08908 0.27634,-0.17816 0.36846,-0.26724c0.27634,-0.08908 0.55268,0 0.6448,0.17816c0.27634,0.26724 0.27634,0.53448 0.27634,0.53448zM235.1249,177.47688c0,0 0,-0.08908 0,-0.17816c0,-0.08908 -0.09211,-0.26724 -0.27634,-0.26724c-0.18423,-0.08908 -0.36846,-0.08908 -0.46057,0.08908c-0.09211,0.08908 -0.09211,0.08908 -0.18423,0.17816c0,0.08908 -0.09211,0.08908 -0.09211,0.17816c0,0.08908 0,0.17816 0.09211,0.17816c0,0.08908 0.09211,0.08908 0.18423,0.17816c0.09211,0.08908 0.18423,0.08908 0.27634,0.08908c0.09211,0 0.18423,0 0.27634,0c0.18423,-0.08908 0.27634,-0.17816 0.27634,-0.26724c-0.09211,-0.08908 -0.09211,-0.17816 -0.09211,-0.17816z" fill="#d9ffb3"/><path d="M234.75645,172.39929c0,0 -0.09211,0.26724 -0.18423,0.71265c-0.09211,0.4454 -0.18423,1.15805 -0.36846,1.95977c-0.09211,0.80173 -0.27634,1.78161 -0.36846,2.85058c-0.09211,1.06897 -0.27634,2.13794 -0.46057,3.29598c-0.27634,2.22702 -0.55268,4.45403 -0.92114,6.05748c-0.09211,0.80173 -0.27634,1.51437 -0.36846,2.04885c-0.09211,0.4454 -0.18423,0.80173 -0.18423,0.80173c0,0 0,-0.26724 0,-0.80173c0,-0.53448 0,-1.15805 0,-2.04885c0,-0.80173 0.09211,-1.78161 0.18423,-2.85058c0.09211,-1.06897 0.18423,-2.13794 0.36846,-3.29598c0.18423,-1.15805 0.36846,-2.22702 0.55268,-3.29598c0.18423,-1.06897 0.46057,-1.95977 0.6448,-2.85058c0.27634,-0.80173 0.46057,-1.51437 0.6448,-1.95977c0.27634,-0.35632 0.46057,-0.62356 0.46057,-0.62356z" fill="#ffffff"/><path d="M238.80946,197.07462c0,0 0.55268,0 1.56593,-0.08908c1.01325,-0.08908 2.39496,-0.17816 4.05301,-0.4454c1.65805,-0.26724 3.68455,-0.71265 5.43471,-1.69253c0.92114,-0.53448 1.75016,-1.24713 2.0265,-2.22702c0.18423,-0.4454 0.09211,-0.97989 0.09211,-1.51437c0,-0.53448 -0.09211,-1.06897 -0.18423,-1.60345c-0.27634,-2.13794 -0.73691,-4.36495 -1.19748,-6.32473c-0.46057,-2.04885 -0.92114,-3.91955 -1.38171,-5.523c-0.82902,-3.2069 -1.47382,-5.34484 -1.47382,-5.34484c0,0 0.18423,0.53448 0.46057,1.42529c0.27634,0.89081 0.73691,2.22702 1.19748,3.83047c0.46057,1.60345 1.01325,3.47415 1.47382,5.43392c0.27634,0.97989 0.46057,2.04885 0.6448,3.11782c0.18423,1.06897 0.36846,2.13794 0.55268,3.29598c0.09211,0.53448 0.09211,1.06897 0.18423,1.69253c0,0.53448 0.09211,1.15805 -0.09211,1.69253c-0.36846,1.15805 -1.28959,1.95977 -2.21073,2.49426c-0.92114,0.53448 -1.93439,0.89081 -2.85553,1.06897c-0.92114,0.26724 -1.84228,0.4454 -2.6713,0.53448c-1.65805,0.26724 -3.13187,0.26724 -4.14512,0.35632c-0.92114,-0.17816 -1.47382,-0.17816 -1.47382,-0.17816z" fill="#96b7c4"/><path d="M239.82271,195.38209c0,0 1.75016,-0.08908 4.23723,-0.53448c1.28959,-0.26724 2.76341,-0.53448 4.14512,-1.24713c0.6448,-0.35632 1.38171,-0.80173 1.56593,-1.51437c0.18423,-0.80173 0.09211,-1.60345 0.09211,-2.40518c0,-1.69253 -0.27634,-3.29598 -0.55268,-4.81035c-0.27634,-1.51437 -0.55268,-2.93966 -0.82902,-4.18679c-0.27634,-1.24713 -0.55268,-2.22702 -0.73691,-2.93966c-0.18423,-0.71265 -0.36846,-1.06897 -0.36846,-1.06897c0,0 0.18423,0.35632 0.36846,1.06897c0.27634,0.71265 0.55268,1.69253 0.92114,2.93966c0.36846,1.24713 0.73691,2.67242 1.01325,4.18679c0.27634,1.51437 0.55268,3.2069 0.55268,4.89944c0,0.80173 0,1.69253 -0.18423,2.49426c-0.27634,0.97989 -1.10537,1.42529 -1.84228,1.78161c-0.73691,0.35632 -1.47382,0.53448 -2.21073,0.71265c-0.73691,0.17816 -1.38171,0.26724 -2.0265,0.35632c-1.28959,0.17816 -2.39496,0.26724 -3.13187,0.26724c-0.6448,0 -1.01325,0 -1.01325,0z" fill="#67ba38"/><path d="M250.13945,192.35335c0,0 0,-0.08908 -0.09211,-0.17816c-0.09211,-0.08908 -0.18423,-0.17816 -0.36846,-0.26724c-0.18423,-0.08908 -0.46057,-0.17816 -0.73691,-0.26724c-0.27634,-0.08908 -0.6448,-0.17816 -0.92114,-0.26724c-0.73691,-0.08908 -1.56593,-0.17816 -2.48707,-0.26724c-0.92114,-0.08908 -1.93439,-0.08908 -2.85553,-0.08908c-1.01325,0 -1.93439,0 -2.85553,0c-0.92114,0.08908 -1.75016,0.08908 -2.48707,0.08908c-1.47382,0.08908 -2.48707,0.08908 -2.48707,0.08908c0,0 1.01325,-0.17816 2.48707,-0.35632c0.73691,-0.08908 1.56593,-0.17816 2.48707,-0.26724c0.92114,0 1.93439,-0.08908 2.94764,-0.08908c1.01325,0 2.0265,0 2.94764,0.08908c0.92114,0.08908 1.75016,0.26724 2.48707,0.4454c0.36846,0.08908 0.73691,0.17816 1.01325,0.35632c0.27634,0.08908 0.55268,0.26724 0.6448,0.35632c0.18423,0.08908 0.27634,0.26724 0.36846,0.35632c-0.09211,0.17816 -0.09211,0.26724 -0.09211,0.26724z" fill="#67ba38"/><path d="M247.0997,191.81887c0,0 -0.09211,0.08908 -0.27634,0.17816c-0.18423,0.08908 -0.55268,0.26724 -1.01325,0.17816c-0.18423,0 -0.46057,-0.17816 -0.6448,-0.35632c-0.09211,-0.08908 -0.09211,-0.08908 -0.09211,-0.17816c0,-0.08908 -0.09211,-0.08908 -0.09211,-0.17816c-0.09211,-0.08908 -0.09211,-0.26724 -0.09211,-0.35632c-0.09211,-0.53448 0.09211,-1.06897 0.46057,-1.51437c0.18423,-0.17816 0.46057,-0.35632 0.82902,-0.4454c0.27634,-0.08908 0.6448,0 0.92114,0.08908c0.27634,0.08908 0.46057,0.35632 0.6448,0.53448c0.18423,0.26724 0.18423,0.4454 0.18423,0.71265c0,0.4454 -0.27634,0.80173 -0.36846,0.97989c-0.36846,0.26724 -0.46057,0.35632 -0.46057,0.35632zM247.0997,191.72979c0,0 0.09211,-0.08908 0.18423,-0.26724c0.09211,-0.17816 0.18423,-0.53448 0.09211,-0.89081c-0.09211,-0.17816 -0.09211,-0.35632 -0.18423,-0.4454c-0.09211,-0.17816 -0.27634,-0.26724 -0.46057,-0.35632c-0.36846,-0.17816 -0.82902,-0.17816 -1.28959,0.08908c-0.18423,0.08908 -0.36846,0.35632 -0.46057,0.53448c-0.09211,0.26724 -0.09211,0.4454 0.09211,0.71265c0.09211,0.17816 0.27634,0.35632 0.36846,0.4454c0.18423,0.08908 0.27634,0.17816 0.46057,0.26724c0.27634,0.17816 0.6448,0.17816 0.92114,0.08908c0.18423,-0.08908 0.27634,-0.17816 0.27634,-0.17816z" fill="#d9ffb3"/></g></g></svg>