<svg version="1.1" xmlns="http://www.w3.org/2000/svg" xmlns:xlink="http://www.w3.org/1999/xlink" width="19.47936" height="57.98133" viewBox="0,0,19.47936,57.98133"><g transform="translate(-230.26032,-151.00933)"><g data-paper-data="{&quot;isPaintingLayer&quot;:true}" fill-rule="nonzero" stroke="none" stroke-width="1" stroke-linecap="butt" stroke-linejoin="miter" stroke-miterlimit="10" stroke-dasharray="" stroke-dashoffset="0" style="mix-blend-mode: normal"><path d="M235.14923,156.35149c0,0 -5.19474,-1.94803 -1.58728,-4.2568c4.04036,-2.52522 19.55244,-0.50504 10.46164,4.61755c0,0 2.74167,37.3733 5.62764,47.83493c1.01009,3.53531 -6.85418,4.6897 -12.19322,4.4011c-6.42128,-0.36075 -7.64782,-2.16448 -7.07062,-4.47325c0.93794,-3.46316 4.6897,-41.12506 4.76185,-48.12353z" fill="#cae8de"/><path d="M232.51579,205.08829c2.30878,-16.23358 1.80373,-31.24061 3.24672,-34.05443c0.93794,-1.87588 7.28707,-1.44298 8.73006,0.36075c1.15439,1.37084 1.80373,24.53074 3.96821,33.40509c0.72149,3.17457 -16.45002,3.89606 -15.94498,0.2886z" fill="#6136ab"/><path d="M235.07709,171.43068c0.1443,-1.94803 7.86427,-1.80373 8.87435,0.1443c-0.07215,1.22654 -9.01865,0.72149 -8.87435,-0.1443z" fill="#8440cc"/><path d="M247.91965,205.05221c0.50504,3.10242 -14.86274,3.67961 -15.94498,0.64934c-0.21645,-0.36075 -0.2886,-1.44298 7.28707,-1.94803c8.80221,-0.57719 8.65791,1.29869 8.65791,1.29869z" fill="#3d2087"/><path d="M244.96153,153.03262c0,0.72149 -2.16448,1.44298 -5.41119,1.44298c-3.24672,0 -5.62764,-0.2886 -5.62764,-1.01009c0,-0.72149 2.38092,-1.73158 5.69979,-1.73158c3.31886,0 5.33904,0.57719 5.33904,1.29869z" fill="#b6cfd1"/><path d="M244.96153,153.03262c0,0 0,0.07215 0,0.1443c0,0.07215 -0.07215,0.21645 -0.21645,0.2886c-0.1443,0.07215 -0.2886,0.21645 -0.50504,0.2886c-0.21645,0.07215 -0.4329,0.1443 -0.72149,0.21645c-0.50504,0.1443 -1.15439,0.21645 -1.87588,0.2886c-0.72149,0.07215 -1.44298,0.07215 -2.16448,0.1443c-0.72149,0 -1.44298,0 -2.16448,-0.07215c-0.72149,0 -1.29869,-0.1443 -1.87588,-0.21645c-0.50504,0 -0.93794,-0.1443 -1.22654,-0.2886c-0.1443,-0.07215 -0.21645,-0.1443 -0.2886,-0.2886c-0.07215,-0.07215 0,-0.1443 0,-0.1443c0,0 0,0.07215 0,0.1443c0.07215,0.07215 0.1443,0.1443 0.2886,0.21645c0.36075,0.1443 0.79364,0.21645 1.29869,0.21645c0.57719,0.07215 1.22654,0.07215 1.87588,0.07215c0.64934,0 1.37084,0 2.16448,0c0.72149,0 1.44298,0 2.16448,-0.07215c0.64934,-0.07215 1.29869,-0.07215 1.87588,-0.21645c0.50504,-0.07215 1.01009,-0.21645 1.22654,-0.36075c0.1443,-0.07215 0.21645,-0.1443 0.21645,-0.2886z" fill="#96b7c4"/><path d="M233.85055,155.84644c0,0 0.2886,0.1443 0.64934,0.2886c0.4329,0.07215 0.93794,0.2886 1.51513,0.4329c0.2886,0.07215 0.57719,0.1443 0.79364,0.1443c0.2886,0.07215 0.50504,0.07215 0.72149,0.1443c0.21645,0.07215 0.36075,0.07215 0.50504,0.07215c0.1443,0 0.21645,0.07215 0.21645,0.07215c0,0 -0.2886,0.07215 -0.72149,0.07215c-0.21645,0 -0.50504,0 -0.72149,0c-0.2886,0 -0.57719,-0.07215 -0.86579,-0.1443c-0.57719,-0.1443 -1.15439,-0.4329 -1.51513,-0.64934c-0.36075,-0.21645 -0.57719,-0.4329 -0.57719,-0.4329z" fill="#96b7c4"/><path d="M246.76526,153.75412c0,0 0,0.4329 -0.2886,1.01009c-0.1443,0.2886 -0.36075,0.64934 -0.64934,0.93794c-0.2886,0.2886 -0.64934,0.57719 -1.01009,0.79364c-0.36075,0.21645 -0.79364,0.36075 -1.15439,0.4329c-0.21645,0.07215 -0.36075,0.07215 -0.57719,0.07215c-0.21645,0 -0.36075,0 -0.50504,0c-0.2886,0.07215 -0.57719,0 -0.79364,0c-0.21645,0 -0.2886,0 -0.2886,0c0,0 0.07215,0 0.2886,-0.07215c0.21645,0 0.4329,-0.07215 0.72149,-0.07215c0.1443,0 0.2886,-0.07215 0.50504,-0.07215c0.1443,-0.07215 0.36075,-0.07215 0.50504,-0.1443c0.21645,-0.07215 0.36075,-0.1443 0.57719,-0.21645c0.21645,-0.07215 0.36075,-0.1443 0.57719,-0.2886c0.1443,-0.1443 0.36075,-0.21645 0.50504,-0.36075c0.1443,-0.1443 0.2886,-0.21645 0.4329,-0.36075c0.2886,-0.2886 0.50504,-0.50504 0.64934,-0.79364c0.36075,-0.4329 0.50504,-0.86579 0.50504,-0.86579z" fill="#96b7c4"/><path d="M233.6341,153.46552c0,0 -0.07215,0.07215 -0.07215,0.2886c0,0.07215 0,0.21645 0.07215,0.2886c0.07215,0.1443 0.21645,0.21645 0.36075,0.2886c0.1443,0.1443 0.2886,0.21645 0.4329,0.2886c0.1443,0.07215 0.36075,0.07215 0.57719,0.1443c0.4329,0.07215 0.86579,0.1443 1.29869,0.21645c0.21645,0.07215 0.4329,0.07215 0.64934,0.07215c0.21645,0 0.4329,0.07215 0.64934,0.07215c0.4329,0 0.86579,0.07215 1.15439,0.07215c0.72149,0.07215 1.15439,0.07215 1.15439,0.07215c0,0 -0.2886,0.07215 -1.01009,0.1443c-0.36075,0 -0.79364,0 -1.22654,0c-0.21645,0 -0.4329,0 -0.64934,0c-0.21645,-0.07215 -0.50504,-0.07215 -0.72149,-0.07215c-0.4329,-0.07215 -0.93794,-0.1443 -1.37084,-0.2886c-0.21645,-0.07215 -0.4329,-0.1443 -0.57719,-0.21645c-0.21645,-0.07215 -0.36075,-0.21645 -0.50504,-0.2886c-0.1443,-0.1443 -0.2886,-0.2886 -0.2886,-0.4329c-0.07215,-0.1443 -0.07215,-0.2886 -0.07215,-0.36075c0,-0.21645 0.1443,-0.2886 0.1443,-0.2886z" fill="#ffffff"/><path d="M236.30362,199.28028c0,0 0.07215,0 0.21645,0c0.1443,0 0.36075,0.07215 0.50504,0.21645c0.07215,0.07215 0.1443,0.21645 0.1443,0.36075v0.1443v0.07215c0,0.07215 -0.07215,0.1443 -0.07215,0.21645c-0.1443,0.2886 -0.4329,0.4329 -0.72149,0.50504c-0.1443,0 -0.36075,0 -0.50504,-0.07215c-0.1443,-0.07215 -0.2886,-0.21645 -0.36075,-0.36075c-0.07215,-0.1443 -0.1443,-0.36075 -0.07215,-0.4329c0,-0.1443 0.07215,-0.2886 0.1443,-0.4329c0.21645,-0.1443 0.4329,-0.21645 0.50504,-0.21645c0.1443,0 0.21645,0 0.21645,0zM236.30362,199.28028c0,0 -0.07215,0 -0.21645,0.07215c-0.1443,0.07215 -0.21645,0.21645 -0.2886,0.36075c0,0.07215 -0.07215,0.1443 -0.07215,0.21645c0,0.1443 0,0.21645 0.07215,0.2886c0,0.07215 0.07215,0.1443 0.21645,0.21645c0.07215,0.07215 0.21645,0.1443 0.36075,0.1443c0.1443,0 0.2886,0 0.36075,-0.07215c0.07215,-0.07215 0.1443,-0.21645 0.21645,-0.2886c0,-0.07215 0,-0.21645 0,-0.2886c0,-0.07215 -0.07215,-0.1443 -0.07215,-0.2886c-0.1443,-0.1443 -0.2886,-0.2886 -0.36075,-0.2886c-0.1443,-0.07215 -0.21645,-0.07215 -0.21645,-0.07215z" fill="#ad9cff"/><path d="M245.25013,197.18795c0,0 0,0.1443 -0.1443,0.36075c-0.07215,0.07215 -0.07215,0.07215 -0.1443,0.07215c-0.07215,0 -0.1443,0 -0.21645,0c-0.21645,0 -0.36075,-0.21645 -0.36075,-0.4329c0,-0.07215 0.07215,-0.21645 0.07215,-0.2886c0.07215,-0.07215 0.1443,-0.1443 0.21645,-0.1443c0.1443,-0.07215 0.36075,0 0.4329,0.1443c0.21645,0.1443 0.1443,0.2886 0.1443,0.2886zM245.25013,197.18795c0,-0.1443 -0.07215,-0.21645 -0.1443,-0.21645c-0.07215,0 -0.21645,0 -0.2886,0.07215l-0.07215,0.07215c0,0.07215 0,0.07215 0,0.1443c0,0.07215 0,0.1443 0.07215,0.21645c0,0 0.07215,0.07215 0.1443,0.07215c0.07215,0 0.07215,0 0.1443,0c0.07215,0 0.1443,-0.1443 0.1443,-0.1443c0,-0.1443 0,-0.21645 0,-0.21645z" fill="#ad9cff"/><path d="M243.66284,197.76514c0,0 -0.1443,0.07215 -0.4329,0.21645c-0.2886,0.1443 -0.72149,0.2886 -1.22654,0.07215c-0.2886,-0.07215 -0.50504,-0.21645 -0.72149,-0.50504c-0.07215,-0.07215 -0.07215,-0.1443 -0.1443,-0.21645c0,-0.07215 -0.07215,-0.1443 -0.07215,-0.21645c-0.07215,-0.1443 -0.1443,-0.2886 -0.1443,-0.50504c-0.07215,-0.64934 0.1443,-1.37084 0.72149,-1.80373c0.2886,-0.21645 0.64934,-0.36075 1.01009,-0.4329c0.36075,0 0.72149,0.07215 1.01009,0.21645c0.2886,0.1443 0.57719,0.4329 0.72149,0.72149c0.1443,0.2886 0.21645,0.57719 0.21645,0.86579c0,0.57719 -0.2886,0.93794 -0.50504,1.15439c-0.2886,0.2886 -0.4329,0.4329 -0.4329,0.4329zM243.59069,197.69299c0,0 0,0 0.07215,-0.07215c0.07215,-0.07215 0.1443,-0.1443 0.21645,-0.21645c0.1443,-0.21645 0.2886,-0.64934 0.21645,-1.08224c0,-0.21645 -0.07215,-0.4329 -0.21645,-0.64934c-0.1443,-0.21645 -0.2886,-0.4329 -0.57719,-0.57719c-0.50504,-0.2886 -1.15439,-0.2886 -1.65943,0c-0.2886,0.1443 -0.50504,0.4329 -0.57719,0.72149c-0.1443,0.2886 -0.1443,0.64934 0,0.93794c0.07215,0.2886 0.2886,0.50504 0.4329,0.72149c0.21645,0.21645 0.36075,0.2886 0.57719,0.4329c0.4329,0.21645 0.86579,0.21645 1.15439,0.07215c0.1443,-0.07215 0.21645,-0.07215 0.2886,-0.1443c0.07215,-0.1443 0.07215,-0.1443 0.07215,-0.1443z" fill="#ad9cff"/><path d="M240.92117,193.14759c0,0 -0.07215,0.07215 -0.21645,0.07215c-0.1443,0.07215 -0.36075,0.1443 -0.64934,0.07215c-0.1443,-0.07215 -0.2886,-0.1443 -0.36075,-0.2886c0,-0.07215 -0.07215,-0.07215 -0.07215,-0.1443c0,0 0,-0.07215 -0.07215,-0.1443c0,-0.07215 0,-0.1443 0,-0.2886c0,-0.36075 0.1443,-0.64934 0.50504,-0.93794c0.1443,-0.1443 0.36075,-0.21645 0.50504,-0.21645c0.21645,0 0.36075,0.07215 0.57719,0.1443c0.1443,0.07215 0.2886,0.2886 0.36075,0.4329c0.07215,0.1443 0.07215,0.36075 0.07215,0.50504c-0.07215,0.2886 -0.2886,0.4329 -0.36075,0.57719c-0.21645,0.21645 -0.2886,0.21645 -0.2886,0.21645zM240.92117,193.14759c0,0 0.07215,-0.07215 0.1443,-0.1443c0.07215,-0.1443 0.1443,-0.2886 0.1443,-0.50504c0,-0.07215 -0.07215,-0.21645 -0.07215,-0.2886c-0.07215,-0.1443 -0.1443,-0.21645 -0.21645,-0.2886c-0.07215,-0.07215 -0.21645,-0.1443 -0.36075,-0.1443c-0.1443,0 -0.2886,0 -0.4329,0.07215c-0.1443,0.07215 -0.2886,0.1443 -0.36075,0.2886c-0.07215,0.1443 -0.07215,0.2886 -0.07215,0.4329c0,0.1443 0.1443,0.21645 0.21645,0.36075c0.07215,0.07215 0.1443,0.1443 0.21645,0.21645c0.1443,0.1443 0.36075,0.21645 0.50504,0.1443c0.21645,-0.07215 0.2886,-0.1443 0.2886,-0.1443z" fill="#ad9cff"/><path d="M238.7567,186.00482c0,0 0,0.21645 -0.21645,0.4329c-0.07215,0.07215 -0.1443,0.07215 -0.21645,0.1443c-0.07215,0 -0.21645,0 -0.2886,0c-0.21645,-0.07215 -0.4329,-0.2886 -0.4329,-0.57719c0,-0.1443 0.07215,-0.2886 0.1443,-0.36075c0.07215,-0.07215 0.21645,-0.1443 0.2886,-0.21645c0.21645,-0.07215 0.4329,0 0.50504,0.1443c0.21645,0.21645 0.21645,0.4329 0.21645,0.4329zM238.7567,186.00482c0,0 0,-0.07215 0,-0.1443c0,-0.07215 -0.07215,-0.21645 -0.21645,-0.21645c-0.1443,-0.07215 -0.2886,-0.07215 -0.36075,0.07215c-0.07215,0.07215 -0.07215,0.07215 -0.1443,0.1443c0,0.07215 -0.07215,0.07215 -0.07215,0.1443c0,0.1443 0.07215,0.21645 0.1443,0.36075c0.07215,0 0.1443,0 0.21645,0c0.07215,0 0.1443,0 0.21645,0c0.1443,-0.07215 0.21645,-0.1443 0.21645,-0.21645c0,-0.07215 0,-0.1443 0,-0.1443z" fill="#ad9cff"/><path d="M236.88082,198.05374c0,0 -0.21645,-0.07215 -0.2886,-0.36075c0,-0.07215 0,-0.1443 0,-0.2886c0,-0.07215 0.07215,-0.21645 0.1443,-0.2886c0.1443,-0.21645 0.4329,-0.21645 0.64934,-0.1443c0.07215,0.07215 0.21645,0.1443 0.2886,0.2886c0.07215,0.1443 0.07215,0.21645 0.07215,0.36075c-0.07215,0.21645 -0.21645,0.36075 -0.36075,0.4329c-0.2886,0.07215 -0.50504,-0.07215 -0.50504,0zM236.88082,198.05374c0,0 0.07215,0 0.1443,0c0.07215,0 0.21645,0 0.2886,-0.07215c0.1443,-0.07215 0.1443,-0.21645 0.1443,-0.36075c0,-0.07215 -0.07215,-0.1443 -0.07215,-0.1443c-0.07215,-0.07215 -0.07215,-0.07215 -0.1443,-0.1443c-0.07215,-0.07215 -0.21645,-0.07215 -0.36075,0c-0.07215,0 -0.1443,0.07215 -0.1443,0.1443c0,0.07215 -0.07215,0.1443 -0.07215,0.21645c0,0.1443 0.07215,0.21645 0.1443,0.2886c0.07215,0 0.07215,0.07215 0.07215,0.07215z" fill="#ad9cff"/><path d="M236.66437,160.53614c0,0 0,0.64934 0,1.87588c0,1.15439 0,2.81382 -0.07215,4.834c-0.07215,2.02018 -0.1443,4.32895 -0.21645,6.85418c-0.1443,2.52522 -0.2886,5.19474 -0.50504,7.86427c-0.21645,2.66952 -0.50504,5.33904 -0.72149,7.86427c-0.1443,1.22654 -0.2886,2.45307 -0.4329,3.60746c-0.1443,1.15439 -0.2886,2.23663 -0.4329,3.24672c-0.21645,2.02018 -0.50504,3.67961 -0.72149,4.834c-0.1443,1.15439 -0.2886,1.80373 -0.2886,1.80373c0,0 0.07215,-0.64934 0.21645,-1.80373c0.1443,-1.15439 0.2886,-2.81382 0.57719,-4.834c0.07215,-1.01009 0.21645,-2.09233 0.36075,-3.24672c0.1443,-1.15439 0.21645,-2.38092 0.36075,-3.60746c0.21645,-2.52522 0.50504,-5.19474 0.64934,-7.79212c0.21645,-2.66952 0.4329,-5.33904 0.57719,-7.86427c0.1443,-2.52522 0.2886,-4.834 0.36075,-6.85418c0.21645,-4.11251 0.2886,-6.78203 0.2886,-6.78203z" fill="#ffffff"/><path d="M239.26174,208.94827c0,0 0.57719,0 1.51513,-0.1443c0.93794,-0.1443 2.38092,-0.2886 3.96821,-0.64934c0.79364,-0.21645 1.65943,-0.4329 2.52522,-0.86579c0.4329,-0.21645 0.86579,-0.4329 1.22654,-0.72149c0.36075,-0.2886 0.64934,-0.72149 0.79364,-1.15439c0.07215,-0.4329 -0.07215,-0.93794 -0.21645,-1.51513c-0.1443,-0.50504 -0.2886,-1.08224 -0.36075,-1.58728c-0.21645,-1.08224 -0.4329,-2.16448 -0.64934,-3.31886c-0.36075,-2.23663 -0.64934,-4.47325 -0.93794,-6.56558c-0.21645,-2.09233 -0.4329,-4.04036 -0.57719,-5.69979c-0.2886,-3.31886 -0.4329,-5.62764 -0.4329,-5.62764c0,0 0.21645,2.23663 0.57719,5.55549c0.21645,1.65943 0.4329,3.60746 0.72149,5.69979c0.2886,2.09233 0.57719,4.32895 0.93794,6.49343c0.21645,1.08224 0.4329,2.23663 0.64934,3.24672c0.07215,0.50504 0.21645,1.08224 0.36075,1.58728c0.07215,0.2886 0.1443,0.50504 0.21645,0.79364c0.07215,0.2886 0.07215,0.57719 0,0.86579c-0.1443,0.57719 -0.50504,1.01009 -0.86579,1.37084c-0.4329,0.36075 -0.86579,0.57719 -1.29869,0.79364c-0.93794,0.36075 -1.80373,0.57719 -2.59737,0.79364c-1.65943,0.36075 -3.03027,0.4329 -4.04036,0.50504c-0.93794,0.1443 -1.51513,0.1443 -1.51513,0.1443z" fill="#96b7c4"/><path d="M239.62249,207.57744c0,0 0.4329,0 1.22654,-0.07215c0.79364,-0.07215 1.87588,-0.21645 3.17457,-0.4329c0.64934,-0.1443 1.29869,-0.2886 2.02018,-0.57719c0.36075,-0.1443 0.72149,-0.2886 1.01009,-0.50504c0.2886,-0.21645 0.50504,-0.50504 0.50504,-0.86579c-0.1443,-0.79364 -0.2886,-1.65943 -0.4329,-2.45307c-0.1443,-0.86579 -0.21645,-1.73158 -0.36075,-2.59737c-0.50504,-3.46316 -0.86579,-6.99847 -1.08224,-9.59585c-0.21645,-2.59737 -0.2886,-4.4011 -0.2886,-4.4011c0,0 0.1443,1.73158 0.50504,4.4011c0.2886,2.59737 0.72149,6.13268 1.22654,9.59585c0.1443,0.86579 0.2886,1.73158 0.36075,2.59737c0.07215,0.4329 0.1443,0.86579 0.21645,1.29869c0.07215,0.4329 0.1443,0.79364 0.21645,1.29869c0,0.50504 -0.36075,0.86579 -0.64934,1.15439c-0.36075,0.21645 -0.72149,0.4329 -1.08224,0.57719c-0.72149,0.2886 -1.44298,0.4329 -2.09233,0.50504c-1.29869,0.21645 -2.38092,0.2886 -3.17457,0.2886c-0.86579,-0.21645 -1.29869,-0.21645 -1.29869,-0.21645z" fill="#1a1d3d"/><path d="M247.91965,205.05221c0,0 0,-0.07215 -0.07215,-0.1443c-0.07215,-0.07215 -0.1443,-0.1443 -0.2886,-0.21645c-0.1443,-0.07215 -0.36075,-0.1443 -0.57719,-0.21645c-0.21645,-0.07215 -0.50504,-0.1443 -0.79364,-0.21645c-0.57719,-0.1443 -1.22654,-0.21645 -2.02018,-0.21645c-0.72149,-0.07215 -1.51513,-0.07215 -2.30878,-0.07215c-0.79364,0 -1.58728,0 -2.30878,0c-0.72149,0 -1.44298,0.07215 -2.02018,0.07215c-1.15439,0.07215 -1.94803,0.07215 -1.94803,0.07215c0,0 0.79364,-0.1443 1.94803,-0.2886c0.64934,-0.07215 1.29869,-0.1443 2.09233,-0.1443c0.72149,0 1.51513,-0.07215 2.30878,-0.07215c0.79364,0 1.58728,0 2.30878,0.07215c0.72149,0.07215 1.44298,0.21645 2.02018,0.36075c0.2886,0.07215 0.57719,0.1443 0.79364,0.2886c0.21645,0.07215 0.4329,0.21645 0.57719,0.2886c0.1443,0.07215 0.21645,0.21645 0.2886,0.2886c0,0.07215 0,0.1443 0,0.1443z" fill="#1a1d3d"/><path d="M238.82885,204.18642c0,0 -0.07215,0.07215 -0.21645,0.1443c-0.1443,0.07215 -0.4329,0.21645 -0.79364,0.1443c-0.1443,0 -0.36075,-0.1443 -0.50504,-0.2886c-0.07215,-0.07215 -0.07215,-0.07215 -0.07215,-0.1443c0,-0.07215 -0.07215,-0.07215 -0.07215,-0.1443c-0.07215,-0.07215 -0.07215,-0.21645 -0.07215,-0.2886c-0.07215,-0.4329 0.07215,-0.86579 0.36075,-1.22654c0.1443,-0.1443 0.36075,-0.2886 0.64934,-0.36075c0.21645,-0.07215 0.50504,0 0.72149,0.07215c0.21645,0.07215 0.4329,0.2886 0.50504,0.4329c0.1443,0.21645 0.1443,0.36075 0.1443,0.57719c0,0.36075 -0.21645,0.64934 -0.2886,0.79364c-0.2886,0.2886 -0.36075,0.2886 -0.36075,0.2886zM238.82885,204.18642c0,0 0.07215,-0.07215 0.1443,-0.21645c0.07215,-0.1443 0.1443,-0.4329 0.07215,-0.72149c-0.07215,-0.1443 -0.07215,-0.2886 -0.1443,-0.36075c-0.07215,-0.1443 -0.21645,-0.21645 -0.36075,-0.2886c-0.1443,-0.07215 -0.2886,-0.1443 -0.50504,-0.1443c-0.21645,0 -0.36075,0.07215 -0.50504,0.1443c-0.1443,0.07215 -0.2886,0.2886 -0.36075,0.4329c-0.07215,0.21645 -0.07215,0.4329 0.07215,0.57719c0.07215,0.1443 0.21645,0.2886 0.2886,0.4329c0.1443,0.07215 0.21645,0.1443 0.36075,0.21645c0.2886,0.1443 0.50504,0.1443 0.72149,0.07215c0.1443,-0.07215 0.21645,-0.1443 0.21645,-0.1443z" fill="#ad9cff"/><path d="M245.32228,205.26866c0,0 -0.1443,0.07215 -0.4329,0.21645c-0.2886,0.1443 -0.72149,0.2886 -1.22654,0.07215c-0.2886,-0.07215 -0.50504,-0.21645 -0.72149,-0.50504c-0.07215,-0.07215 -0.07215,-0.1443 -0.1443,-0.21645c0,-0.07215 -0.07215,-0.1443 -0.07215,-0.21645c-0.07215,-0.1443 -0.1443,-0.2886 -0.1443,-0.50504c-0.07215,-0.64934 0.1443,-1.37084 0.72149,-1.80373c0.2886,-0.21645 0.64934,-0.36075 1.01009,-0.4329c0.36075,0 0.72149,0.07215 1.01009,0.21645c0.2886,0.1443 0.57719,0.4329 0.72149,0.72149c0.1443,0.2886 0.21645,0.57719 0.21645,0.86579c0,0.57719 -0.2886,0.93794 -0.50504,1.15439c-0.2886,0.36075 -0.4329,0.4329 -0.4329,0.4329zM245.25013,205.26866c0,0 0,0 0.07215,-0.07215c0.07215,-0.07215 0.1443,-0.1443 0.21645,-0.21645c0.1443,-0.21645 0.2886,-0.64934 0.21645,-1.08224c0,-0.21645 -0.07215,-0.4329 -0.21645,-0.64934c-0.1443,-0.21645 -0.2886,-0.4329 -0.57719,-0.57719c-0.50504,-0.2886 -1.15439,-0.2886 -1.65943,0c-0.2886,0.1443 -0.50504,0.4329 -0.57719,0.72149c-0.1443,0.2886 -0.1443,0.64934 0,0.93794c0.07215,0.2886 0.2886,0.50504 0.4329,0.72149c0.21645,0.21645 0.36075,0.2886 0.57719,0.4329c0.4329,0.21645 0.86579,0.21645 1.15439,0.07215c0.1443,-0.07215 0.21645,-0.07215 0.2886,-0.1443c0.07215,-0.1443 0.07215,-0.1443 0.07215,-0.1443z" fill="#ad9cff"/></g></g></svg>